G04*
G04 #@! TF.GenerationSoftware,Altium Limited,Altium Designer,20.0.13 (296)*
G04*
G04 Layer_Color=8388736*
%FSLAX25Y25*%
%MOIN*%
G70*
G01*
G75*
%ADD20R,0.18713X0.09855*%
%ADD21R,0.07099X0.13398*%
%ADD22R,0.33792X0.42768*%
G04:AMPARAMS|DCode=23|XSize=55.24mil|YSize=128.08mil|CornerRadius=15.81mil|HoleSize=0mil|Usage=FLASHONLY|Rotation=0.000|XOffset=0mil|YOffset=0mil|HoleType=Round|Shape=RoundedRectangle|*
%AMROUNDEDRECTD23*
21,1,0.05524,0.09646,0,0,0.0*
21,1,0.02362,0.12808,0,0,0.0*
1,1,0.03162,0.01181,-0.04823*
1,1,0.03162,-0.01181,-0.04823*
1,1,0.03162,-0.01181,0.04823*
1,1,0.03162,0.01181,0.04823*
%
%ADD23ROUNDEDRECTD23*%
%ADD24R,0.10446X0.13202*%
%ADD25R,0.05918X0.06312*%
%ADD26R,0.05328X0.06115*%
G04:AMPARAMS|DCode=27|XSize=165.48mil|YSize=165.48mil|CornerRadius=43.37mil|HoleSize=0mil|Usage=FLASHONLY|Rotation=0.000|XOffset=0mil|YOffset=0mil|HoleType=Round|Shape=RoundedRectangle|*
%AMROUNDEDRECTD27*
21,1,0.16548,0.07874,0,0,0.0*
21,1,0.07874,0.16548,0,0,0.0*
1,1,0.08674,0.03937,-0.03937*
1,1,0.08674,-0.03937,-0.03937*
1,1,0.08674,-0.03937,0.03937*
1,1,0.08674,0.03937,0.03937*
%
%ADD27ROUNDEDRECTD27*%
%ADD28C,0.12611*%
D20*
X495490Y274205D02*
D03*
X465569D02*
D03*
X495490Y314205D02*
D03*
X465569D02*
D03*
D21*
X389361Y308917D02*
D03*
Y328602D02*
D03*
D22*
X432874Y317806D02*
D03*
D23*
X419095Y281192D02*
D03*
X425985D02*
D03*
X432874D02*
D03*
X439764D02*
D03*
X446654D02*
D03*
D24*
X420277Y257497D02*
D03*
X444686D02*
D03*
D25*
X387378Y283247D02*
D03*
X393677D02*
D03*
X387378Y293247D02*
D03*
X393677D02*
D03*
D26*
X393974Y264205D02*
D03*
X387084D02*
D03*
X387084Y254205D02*
D03*
X393974D02*
D03*
X393974Y274205D02*
D03*
X387085D02*
D03*
D27*
X500529Y234205D02*
D03*
X499869Y206995D02*
D03*
X380529Y234205D02*
D03*
X380158Y206991D02*
D03*
D28*
X440966Y234871D02*
D03*
Y203375D02*
D03*
M02*
