G04*
G04 #@! TF.GenerationSoftware,Altium Limited,Altium Designer,20.0.13 (296)*
G04*
G04 Layer_Color=8388736*
%FSLAX25Y25*%
%MOIN*%
G70*
G01*
G75*
%ADD23R,0.05512X0.06299*%
%ADD24R,0.08661X0.04724*%
%ADD25R,0.05512X0.04724*%
%ADD26R,0.06299X0.02756*%
%ADD39R,0.05918X0.07887*%
%ADD40R,0.07296X0.05524*%
%ADD41R,0.01575X0.06102*%
%ADD42R,0.06102X0.01575*%
%ADD43R,0.07887X0.05642*%
%ADD44R,0.04134X0.10630*%
%ADD45R,0.19685X0.24803*%
%ADD46R,0.05642X0.07887*%
%ADD47R,0.07887X0.05918*%
%ADD48R,0.05512X0.04724*%
%ADD49R,0.05524X0.05524*%
%ADD50R,0.01378X0.03543*%
%ADD51R,0.03543X0.01378*%
%ADD52R,0.10630X0.11024*%
%ADD53R,0.06115X0.05328*%
%ADD54R,0.02178X0.02769*%
%ADD55R,0.07480X0.04724*%
%ADD56C,0.06706*%
%ADD57C,0.06496*%
%ADD58R,0.06496X0.06496*%
%ADD59C,0.00800*%
%ADD60C,0.01981*%
%ADD61C,0.02769*%
D23*
X197502Y457946D02*
D03*
D24*
X235297Y461490D02*
D03*
X235297Y400466D02*
D03*
D25*
X197895D02*
D03*
D26*
X195533Y405191D02*
D03*
Y409521D02*
D03*
Y413852D02*
D03*
Y418183D02*
D03*
Y422513D02*
D03*
Y426844D02*
D03*
Y431175D02*
D03*
Y435505D02*
D03*
Y439836D02*
D03*
D39*
X107000Y363000D02*
D03*
X118417D02*
D03*
X117709Y373000D02*
D03*
X106291D02*
D03*
X101291Y451000D02*
D03*
X112709D02*
D03*
X121709Y487000D02*
D03*
X110291D02*
D03*
X216732Y473622D02*
D03*
X205315D02*
D03*
X238500Y473000D02*
D03*
X227083D02*
D03*
X142520Y427953D02*
D03*
X153937D02*
D03*
X112709Y441000D02*
D03*
X101291D02*
D03*
X133858Y427953D02*
D03*
X122441D02*
D03*
X100291Y407000D02*
D03*
X111709D02*
D03*
X127791Y508500D02*
D03*
X139209D02*
D03*
D40*
X113386Y471260D02*
D03*
Y460236D02*
D03*
X129126Y401811D02*
D03*
Y390787D02*
D03*
X139126Y398811D02*
D03*
Y387787D02*
D03*
X168898Y390945D02*
D03*
Y401968D02*
D03*
D41*
X130173Y444366D02*
D03*
X132142D02*
D03*
X134110D02*
D03*
X136079D02*
D03*
X138047D02*
D03*
X140016D02*
D03*
X141984D02*
D03*
X143953D02*
D03*
X145921D02*
D03*
X147890D02*
D03*
X149858D02*
D03*
X151827D02*
D03*
Y477634D02*
D03*
X149858D02*
D03*
X147890D02*
D03*
X145921D02*
D03*
X143953D02*
D03*
X141984D02*
D03*
X140016D02*
D03*
X138047D02*
D03*
X136079D02*
D03*
X134110D02*
D03*
X132142D02*
D03*
X130173D02*
D03*
D42*
X157634Y450173D02*
D03*
Y452142D02*
D03*
Y454110D02*
D03*
Y456079D02*
D03*
Y458047D02*
D03*
Y460016D02*
D03*
Y461984D02*
D03*
Y463953D02*
D03*
Y465921D02*
D03*
Y467890D02*
D03*
Y469858D02*
D03*
Y471827D02*
D03*
X124366D02*
D03*
Y469858D02*
D03*
Y467890D02*
D03*
Y465921D02*
D03*
Y463953D02*
D03*
Y461984D02*
D03*
Y460016D02*
D03*
Y458047D02*
D03*
Y456079D02*
D03*
Y454110D02*
D03*
Y452142D02*
D03*
Y450173D02*
D03*
D43*
X194921Y474409D02*
D03*
X184606D02*
D03*
D44*
X211024Y486161D02*
D03*
X228976D02*
D03*
X183024D02*
D03*
X200976D02*
D03*
D45*
X220000Y511752D02*
D03*
X192000D02*
D03*
D46*
X173000Y499342D02*
D03*
Y509657D02*
D03*
D47*
X173622Y434055D02*
D03*
Y422638D02*
D03*
X163386Y421063D02*
D03*
Y432480D02*
D03*
X157874Y402362D02*
D03*
Y390945D02*
D03*
X159000Y498000D02*
D03*
Y486583D02*
D03*
X148500Y494291D02*
D03*
Y505709D02*
D03*
X129126Y370091D02*
D03*
Y381508D02*
D03*
D48*
X135753Y419645D02*
D03*
X144808D02*
D03*
X135814Y412136D02*
D03*
X144826Y412200D02*
D03*
D49*
X103543Y428346D02*
D03*
Y420079D02*
D03*
D50*
X117126Y399654D02*
D03*
X115157D02*
D03*
X113189D02*
D03*
X111221D02*
D03*
X109252D02*
D03*
X107283D02*
D03*
Y384299D02*
D03*
X109252D02*
D03*
X111221D02*
D03*
X113189D02*
D03*
X115157D02*
D03*
X117126D02*
D03*
D51*
X104528Y396898D02*
D03*
Y394929D02*
D03*
Y392961D02*
D03*
Y390992D02*
D03*
Y389024D02*
D03*
Y387055D02*
D03*
X119882D02*
D03*
Y389024D02*
D03*
Y390992D02*
D03*
Y392961D02*
D03*
Y394929D02*
D03*
Y396898D02*
D03*
D52*
X112205Y391976D02*
D03*
D53*
X112992Y421752D02*
D03*
Y428642D02*
D03*
D54*
X140685Y500295D02*
D03*
X138126D02*
D03*
X135567D02*
D03*
X133008D02*
D03*
D03*
Y494587D02*
D03*
X135567D02*
D03*
X138126D02*
D03*
X140685D02*
D03*
D55*
X150205Y362118D02*
D03*
X181890Y362260D02*
D03*
Y380134D02*
D03*
X149961D02*
D03*
D56*
X250500Y501000D02*
D03*
Y491000D02*
D03*
D57*
X96063Y479370D02*
D03*
Y489370D02*
D03*
Y469370D02*
D03*
D58*
Y499370D02*
D03*
D59*
X95000Y359000D02*
D03*
X255000D02*
D03*
Y519000D02*
D03*
X95000D02*
D03*
D60*
X144000Y406000D02*
D03*
X124000Y420000D02*
D03*
X119000Y380000D02*
D03*
X101000Y368000D02*
D03*
X91000Y380000D02*
D03*
X96000Y394000D02*
D03*
X92000Y408000D02*
D03*
X118000D02*
D03*
X125984Y363189D02*
D03*
X166339Y412402D02*
D03*
Y462598D02*
D03*
X139000Y369000D02*
D03*
X183071Y390748D02*
D03*
X96457Y432087D02*
D03*
X150591Y488189D02*
D03*
X117126Y480315D02*
D03*
X105315Y468504D02*
D03*
X122047Y501968D02*
D03*
D61*
X138000Y378000D02*
D03*
X92000Y401000D02*
D03*
X201969Y431890D02*
D03*
X172835Y490551D02*
D03*
X129134Y500394D02*
D03*
X184682Y431139D02*
D03*
X143701Y435433D02*
D03*
X151181Y398819D02*
D03*
X147244Y461024D02*
D03*
X150394Y467323D02*
D03*
X135592Y489923D02*
D03*
X150394Y463779D02*
D03*
X138976Y403937D02*
D03*
X129134Y407480D02*
D03*
M02*
