G04*
G04 #@! TF.GenerationSoftware,Altium Limited,Altium Designer,20.0.13 (296)*
G04*
G04 Layer_Color=16711935*
%FSLAX25Y25*%
%MOIN*%
G70*
G01*
G75*
%ADD56C,0.06706*%
%ADD57C,0.06496*%
%ADD58R,0.06496X0.06496*%
%ADD59C,0.00800*%
%ADD60C,0.01981*%
%ADD61C,0.02769*%
D56*
X250500Y501000D02*
D03*
Y491000D02*
D03*
D57*
X96063Y479370D02*
D03*
Y489370D02*
D03*
Y469370D02*
D03*
D58*
Y499370D02*
D03*
D59*
X95000Y359000D02*
D03*
X255000D02*
D03*
Y519000D02*
D03*
X95000D02*
D03*
D60*
X144000Y406000D02*
D03*
X124000Y420000D02*
D03*
X119000Y380000D02*
D03*
X101000Y368000D02*
D03*
X91000Y380000D02*
D03*
X96000Y394000D02*
D03*
X92000Y408000D02*
D03*
X118000D02*
D03*
X125984Y363189D02*
D03*
X166339Y412402D02*
D03*
Y462598D02*
D03*
X139000Y369000D02*
D03*
X183071Y390748D02*
D03*
X96457Y432087D02*
D03*
X150591Y488189D02*
D03*
X117126Y480315D02*
D03*
X105315Y468504D02*
D03*
X122047Y501968D02*
D03*
D61*
X138000Y378000D02*
D03*
X92000Y401000D02*
D03*
X201969Y431890D02*
D03*
X172835Y490551D02*
D03*
X129134Y500394D02*
D03*
X184682Y431139D02*
D03*
X143701Y435433D02*
D03*
X151181Y398819D02*
D03*
X147244Y461024D02*
D03*
X150394Y467323D02*
D03*
X135592Y489923D02*
D03*
X150394Y463779D02*
D03*
X138976Y403937D02*
D03*
X129134Y407480D02*
D03*
M02*
