G04*
G04 #@! TF.GenerationSoftware,Altium Limited,Altium Designer,20.0.13 (296)*
G04*
G04 Layer_Color=32768*
%FSLAX25Y25*%
%MOIN*%
G70*
G01*
G75*
%ADD14C,0.00394*%
%ADD72C,0.00197*%
D14*
X110740Y363000D02*
X114677D01*
X112709Y361032D02*
Y364968D01*
X110031Y373000D02*
X113969D01*
X112000Y371031D02*
Y374969D01*
X90063Y463370D02*
Y505370D01*
X102063Y463370D02*
Y505370D01*
X90063D02*
X102063D01*
X90063Y463370D02*
X102063D01*
X105032Y451000D02*
X108968D01*
X107000Y449031D02*
Y452969D01*
X113386Y463779D02*
Y467717D01*
X111417Y465748D02*
X115354D01*
X116000Y485032D02*
Y488969D01*
X114032Y487000D02*
X117968D01*
X120528Y440528D02*
X161472D01*
X120528Y481472D02*
X161472D01*
X120528Y440528D02*
Y481472D01*
X161472Y440528D02*
Y481472D01*
X141000Y459031D02*
Y462968D01*
X139032Y461000D02*
X142968D01*
X187795Y474409D02*
X191732D01*
X189764Y472441D02*
Y476378D01*
X187795Y397638D02*
Y464173D01*
X254331D01*
X255118Y463386D01*
Y397638D02*
Y463386D01*
X187795Y397638D02*
X255118D01*
X211024Y471654D02*
Y475591D01*
X209055Y473622D02*
X212992D01*
X230823Y473000D02*
X234760D01*
X232791Y471032D02*
Y474968D01*
X206417Y480256D02*
X233583D01*
X206417Y524744D02*
X233583D01*
X206417Y480256D02*
Y524744D01*
X233583Y480256D02*
Y524744D01*
X220000Y500531D02*
Y504468D01*
X218032Y502500D02*
X221969D01*
X178417Y480256D02*
X205583D01*
X178417Y524744D02*
X205583D01*
X178417Y480256D02*
Y524744D01*
X205583Y480256D02*
Y524744D01*
X192000Y500531D02*
Y504468D01*
X190032Y502500D02*
X193968D01*
X173000Y502531D02*
Y506468D01*
X171031Y504500D02*
X174969D01*
X171653Y428346D02*
X175591D01*
X173622Y426378D02*
Y430315D01*
X163386Y424803D02*
Y428740D01*
X161417Y426772D02*
X165354D01*
X146260Y427953D02*
X150197D01*
X148228Y425984D02*
Y429921D01*
X107000Y439032D02*
Y442969D01*
X105032Y441000D02*
X108968D01*
X126181Y427953D02*
X130118D01*
X128150Y425984D02*
Y429921D01*
X132677Y409449D02*
X148031D01*
X132677D02*
Y422047D01*
X147638D01*
X148031Y422441D01*
Y409449D02*
Y422441D01*
X129126Y394331D02*
Y398268D01*
X127157Y396299D02*
X131095D01*
X103543Y422244D02*
Y426181D01*
X101575Y424213D02*
X105512D01*
X101969Y402213D02*
X122441D01*
X101969Y381740D02*
X122441D01*
Y402213D01*
X101969Y381740D02*
Y402213D01*
X112205Y390008D02*
Y393945D01*
X110236Y391976D02*
X114173D01*
X106000Y405031D02*
Y408968D01*
X104032Y407000D02*
X107968D01*
X139126Y391331D02*
Y395268D01*
X137157Y393299D02*
X141095D01*
X157874Y394685D02*
Y398622D01*
X155905Y396654D02*
X159843D01*
X168898Y394488D02*
Y398425D01*
X166929Y396457D02*
X170866D01*
X112992Y423228D02*
Y427165D01*
X111024Y425197D02*
X114961D01*
X159000Y490323D02*
Y494260D01*
X157032Y492291D02*
X160968D01*
X148500Y498032D02*
Y501968D01*
X146531Y500000D02*
X150469D01*
X131532Y508500D02*
X135468D01*
X133500Y506531D02*
Y510468D01*
X127157Y375799D02*
X131095D01*
X129126Y373831D02*
Y377768D01*
X144961Y357260D02*
Y384260D01*
Y357260D02*
X187961D01*
Y385260D01*
X144961D02*
X187961D01*
X144961Y384260D02*
Y385260D01*
D72*
X97047Y484370D02*
G03*
X97047Y484370I-984J0D01*
G01*
X103457Y358472D02*
Y367528D01*
X121961Y358472D02*
Y367528D01*
X103457D02*
X121961D01*
X103457Y358472D02*
X121961D01*
X121252Y368472D02*
Y377528D01*
X102748Y368472D02*
Y377528D01*
Y368472D02*
X121252D01*
X102748Y377528D02*
X121252D01*
X94685Y484370D02*
X97441D01*
X96063Y482992D02*
Y485748D01*
X97748Y446472D02*
Y455528D01*
X116252Y446472D02*
Y455528D01*
X97748D02*
X116252D01*
X97748Y446472D02*
X116252D01*
X109055Y474606D02*
X117717D01*
X109055Y456890D02*
X117717D01*
Y474606D01*
X109055Y456890D02*
Y474606D01*
X106748Y482472D02*
X125252D01*
X106748Y491528D02*
X125252D01*
Y482472D02*
Y491528D01*
X106748Y482472D02*
Y491528D01*
X180079Y470079D02*
Y478740D01*
Y470079D02*
X199449D01*
X180079Y478740D02*
X199449D01*
Y470079D02*
Y478740D01*
X201772Y469095D02*
X220276D01*
X201772Y478150D02*
X220276D01*
Y469095D02*
Y478150D01*
X201772Y469095D02*
Y478150D01*
X242043Y468472D02*
Y477528D01*
X223539Y468472D02*
Y477528D01*
Y468472D02*
X242043D01*
X223539Y477528D02*
X242043D01*
X168669Y514185D02*
X177331D01*
X168669Y494815D02*
Y514185D01*
X177331Y494815D02*
Y514185D01*
X168669Y494815D02*
X177331D01*
X178150Y419095D02*
Y437598D01*
X169095Y419095D02*
Y437598D01*
X178150D01*
X169095Y419095D02*
X178150D01*
X158858Y417520D02*
X167913D01*
X158858Y436024D02*
X167913D01*
X158858Y417520D02*
Y436024D01*
X167913Y417520D02*
Y436024D01*
X138976Y423425D02*
Y432480D01*
X157480Y423425D02*
Y432480D01*
X138976D02*
X157480D01*
X138976Y423425D02*
X157480D01*
X97748Y436472D02*
X116252D01*
X97748Y445528D02*
X116252D01*
Y436472D02*
Y445528D01*
X97748Y436472D02*
Y445528D01*
X137402Y423425D02*
Y432480D01*
X118898Y423425D02*
Y432480D01*
Y423425D02*
X137402D01*
X118898Y432480D02*
X137402D01*
X124795Y405158D02*
X133457D01*
X124795Y387441D02*
X133457D01*
Y405158D01*
X124795Y387441D02*
Y405158D01*
X99803Y431713D02*
X107283D01*
X99803Y416713D02*
X107283D01*
Y431713D01*
X99803Y416713D02*
Y431713D01*
X96748Y411528D02*
X115252D01*
X96748Y402472D02*
X115252D01*
X96748D02*
Y411528D01*
X115252Y402472D02*
Y411528D01*
X134795Y402157D02*
X143457D01*
X134795Y384441D02*
X143457D01*
Y402157D01*
X134795Y384441D02*
Y402157D01*
X153347Y405905D02*
X162402D01*
X153347Y387402D02*
X162402D01*
Y405905D01*
X153347Y387402D02*
Y405905D01*
X164567Y387598D02*
X173228D01*
X164567Y405315D02*
X173228D01*
X164567Y387598D02*
Y405315D01*
X173228Y387598D02*
Y405315D01*
X109252Y418504D02*
X116732D01*
X109252Y431890D02*
X116732D01*
X109252Y418504D02*
Y431890D01*
X116732Y418504D02*
Y431890D01*
X154472Y501543D02*
X163528D01*
X154472Y483039D02*
X163528D01*
Y501543D01*
X154472Y483039D02*
Y501543D01*
X143972Y490748D02*
X153028D01*
X143972Y509252D02*
X153028D01*
X143972Y490748D02*
Y509252D01*
X153028Y490748D02*
Y509252D01*
X124248Y503972D02*
Y513028D01*
X142752Y503972D02*
Y513028D01*
X124248D02*
X142752D01*
X124248Y503972D02*
X142752D01*
X124598Y366547D02*
Y385051D01*
X133653Y366547D02*
Y385051D01*
X124598Y366547D02*
X133653D01*
X124598Y385051D02*
X133653D01*
X130842Y502559D02*
X142850D01*
Y492323D02*
Y502559D01*
X130842Y492323D02*
X142850D01*
X130842D02*
Y502559D01*
M02*
