G04*
G04 #@! TF.GenerationSoftware,Altium Limited,Altium Designer,20.0.13 (296)*
G04*
G04 Layer_Color=16711935*
%FSLAX25Y25*%
%MOIN*%
G70*
G01*
G75*
%ADD14C,0.00394*%
%ADD69C,0.00100*%
%ADD70R,0.03307X0.06692*%
%ADD71R,0.06692X0.03307*%
D14*
X134418Y452627D02*
G03*
X134418Y452627I-1969J0D01*
G01*
X106016Y359457D02*
Y366543D01*
X119402Y359457D02*
Y366543D01*
X106016D02*
X119402D01*
X106016Y359457D02*
X119402D01*
X118693Y369457D02*
Y376543D01*
X105307Y369457D02*
Y376543D01*
Y369457D02*
X118693D01*
X105307Y376543D02*
X118693D01*
X100307Y447457D02*
Y454543D01*
X113693Y447457D02*
Y454543D01*
X100307D02*
X113693D01*
X100307Y447457D02*
X113693D01*
X110138Y472146D02*
X116634D01*
X110138Y459350D02*
X116634D01*
Y472146D01*
X110138Y459350D02*
Y472146D01*
X109307Y483457D02*
X122693D01*
X109307Y490543D02*
X122693D01*
Y483457D02*
Y490543D01*
X109307Y483457D02*
Y490543D01*
X127220Y447221D02*
X154780D01*
X127220Y474780D02*
X154780D01*
X127220Y447221D02*
Y474780D01*
X154780Y447221D02*
Y474780D01*
X196457Y471064D02*
Y477755D01*
X183012Y471064D02*
Y477755D01*
Y471064D02*
X196457D01*
X183012Y477755D02*
X196457D01*
X204331Y470079D02*
X217717D01*
X204331Y477165D02*
X217717D01*
Y470079D02*
Y477165D01*
X204331Y470079D02*
Y477165D01*
X239484Y469457D02*
Y476543D01*
X226098Y469457D02*
Y476543D01*
Y469457D02*
X239484D01*
X226098Y476543D02*
X239484D01*
X169654Y497807D02*
X176346D01*
X169654Y511252D02*
X176346D01*
X169654Y497807D02*
Y511252D01*
X176346Y497807D02*
Y511252D01*
X177165Y421654D02*
Y435039D01*
X170079Y421654D02*
Y435039D01*
X177165D01*
X170079Y421654D02*
X177165D01*
X159843Y420079D02*
X166929D01*
X159843Y433465D02*
X166929D01*
X159843Y420079D02*
Y433465D01*
X166929Y420079D02*
Y433465D01*
X141535Y424409D02*
Y431496D01*
X154921Y424409D02*
Y431496D01*
X141535D02*
X154921D01*
X141535Y424409D02*
X154921D01*
X100307Y437457D02*
X113693D01*
X100307Y444543D02*
X113693D01*
Y437457D02*
Y444543D01*
X100307Y437457D02*
Y444543D01*
X134843Y424409D02*
Y431496D01*
X121457Y424409D02*
Y431496D01*
Y424409D02*
X134843D01*
X121457Y431496D02*
X134843D01*
X125878Y402697D02*
X132374D01*
X125878Y389902D02*
X132374D01*
Y402697D01*
X125878Y389902D02*
Y402697D01*
X100886Y428543D02*
X106201D01*
X100886Y419882D02*
X106201D01*
Y428543D01*
X100886Y419882D02*
Y428543D01*
X99307Y410543D02*
X112693D01*
X99307Y403457D02*
X112693D01*
X99307D02*
Y410543D01*
X112693Y403457D02*
Y410543D01*
X135878Y399697D02*
X142374D01*
X135878Y386902D02*
X142374D01*
Y399697D01*
X135878Y386902D02*
Y399697D01*
X154331Y403346D02*
X161417D01*
X154331Y389961D02*
X161417D01*
Y403346D01*
X154331Y389961D02*
Y403346D01*
X165650Y390059D02*
X172146D01*
X165650Y402854D02*
X172146D01*
X165650Y390059D02*
Y402854D01*
X172146Y390059D02*
Y402854D01*
X110335Y420866D02*
X115650D01*
X110335Y429528D02*
X115650D01*
X110335Y420866D02*
Y429528D01*
X115650Y420866D02*
Y429528D01*
X155457Y498984D02*
X162543D01*
X155457Y485598D02*
X162543D01*
Y498984D01*
X155457Y485598D02*
Y498984D01*
X144957Y493307D02*
X152043D01*
X144957Y506693D02*
X152043D01*
X144957Y493307D02*
Y506693D01*
X152043Y493307D02*
Y506693D01*
X126807Y504957D02*
Y512043D01*
X140193Y504957D02*
Y512043D01*
X126807D02*
X140193D01*
X126807Y504957D02*
X140193D01*
X125583Y369106D02*
Y382492D01*
X132669Y369106D02*
Y382492D01*
X125583Y369106D02*
X132669D01*
X125583Y382492D02*
X132669D01*
D69*
X91142Y464370D02*
Y504370D01*
X100984Y464370D02*
Y504370D01*
X91142D02*
X100984D01*
X91142Y464370D02*
X100984D01*
D70*
X194862Y474410D02*
D03*
D71*
X173000Y499402D02*
D03*
M02*
