G04*
G04 #@! TF.GenerationSoftware,Altium Limited,Altium Designer,20.0.13 (296)*
G04*
G04 Layer_Physical_Order=2*
G04 Layer_Color=16711680*
%FSLAX25Y25*%
%MOIN*%
G70*
G01*
G75*
%ADD57C,0.06496*%
%ADD58R,0.06496X0.06496*%
%ADD63C,0.01968*%
%ADD64C,0.01181*%
%ADD65C,0.01500*%
%ADD66C,0.05906*%
%ADD67C,0.01181*%
%ADD68C,0.01968*%
G36*
X262969Y351205D02*
X87425D01*
Y526748D01*
X262969D01*
Y351205D01*
D02*
G37*
%LPC*%
G36*
X255000Y525535D02*
X253725Y525410D01*
X252499Y525038D01*
X251369Y524434D01*
X250379Y523621D01*
X249566Y522631D01*
X248962Y521501D01*
X248590Y520275D01*
X248465Y519000D01*
X248590Y517725D01*
X248962Y516499D01*
X249566Y515369D01*
X250379Y514379D01*
X251369Y513566D01*
X252499Y512962D01*
X253725Y512590D01*
X255000Y512465D01*
X256275Y512590D01*
X257501Y512962D01*
X258631Y513566D01*
X259621Y514379D01*
X260434Y515369D01*
X261038Y516499D01*
X261410Y517725D01*
X261535Y519000D01*
X261410Y520275D01*
X261038Y521501D01*
X260434Y522631D01*
X259621Y523621D01*
X258631Y524434D01*
X257501Y525038D01*
X256275Y525410D01*
X255000Y525535D01*
D02*
G37*
G36*
X95000D02*
X93725Y525410D01*
X92499Y525038D01*
X91369Y524434D01*
X90379Y523621D01*
X89566Y522631D01*
X88962Y521501D01*
X88590Y520275D01*
X88465Y519000D01*
X88590Y517725D01*
X88962Y516499D01*
X89566Y515369D01*
X90379Y514379D01*
X91369Y513566D01*
X92499Y512962D01*
X93725Y512590D01*
X95000Y512465D01*
X96275Y512590D01*
X97501Y512962D01*
X98631Y513566D01*
X99621Y514379D01*
X100434Y515369D01*
X101038Y516499D01*
X101410Y517725D01*
X101535Y519000D01*
X101410Y520275D01*
X101038Y521501D01*
X100434Y522631D01*
X99621Y523621D01*
X98631Y524434D01*
X97501Y525038D01*
X96275Y525410D01*
X95000Y525535D01*
D02*
G37*
G36*
X122547Y503491D02*
Y502468D01*
X123570D01*
X123546Y502589D01*
X123194Y503115D01*
X122668Y503467D01*
X122547Y503491D01*
D02*
G37*
G36*
X121547D02*
X121427Y503467D01*
X120900Y503115D01*
X120549Y502589D01*
X120525Y502468D01*
X121547D01*
Y503491D01*
D02*
G37*
G36*
X123570Y501469D02*
X122547D01*
Y500446D01*
X122668Y500470D01*
X123194Y500822D01*
X123546Y501348D01*
X123570Y501469D01*
D02*
G37*
G36*
X121547D02*
X120525D01*
X120549Y501348D01*
X120900Y500822D01*
X121427Y500470D01*
X121547Y500446D01*
Y501469D01*
D02*
G37*
G36*
X250500Y504582D02*
X249573Y504460D01*
X248709Y504102D01*
X247967Y503533D01*
X247398Y502791D01*
X247040Y501927D01*
X246918Y501000D01*
X247040Y500073D01*
X247398Y499209D01*
X247967Y498467D01*
X248709Y497898D01*
X249573Y497540D01*
X250500Y497418D01*
X251427Y497540D01*
X252291Y497898D01*
X253033Y498467D01*
X253602Y499209D01*
X253960Y500073D01*
X254082Y501000D01*
X253960Y501927D01*
X253602Y502791D01*
X253033Y503533D01*
X252291Y504102D01*
X251427Y504460D01*
X250500Y504582D01*
D02*
G37*
G36*
X99910Y503217D02*
X92216D01*
Y495524D01*
X99910D01*
Y503217D01*
D02*
G37*
G36*
X251000Y494921D02*
Y491500D01*
X254421D01*
X254351Y492032D01*
X253953Y492993D01*
X253319Y493819D01*
X252493Y494453D01*
X251532Y494851D01*
X251000Y494921D01*
D02*
G37*
G36*
X250000D02*
X249468Y494851D01*
X248507Y494453D01*
X247681Y493819D01*
X247047Y492993D01*
X246649Y492032D01*
X246579Y491500D01*
X250000D01*
Y494921D01*
D02*
G37*
G36*
X151091Y489711D02*
Y488689D01*
X152113D01*
X152089Y488810D01*
X151737Y489336D01*
X151211Y489687D01*
X151091Y489711D01*
D02*
G37*
G36*
X150091D02*
X149970Y489687D01*
X149444Y489336D01*
X149092Y488810D01*
X149068Y488689D01*
X150091D01*
Y489711D01*
D02*
G37*
G36*
X129134Y502007D02*
X128516Y501885D01*
X127993Y501535D01*
X127643Y501011D01*
X127520Y500394D01*
X127643Y499776D01*
X127922Y499359D01*
Y496381D01*
X128014Y495917D01*
X128277Y495523D01*
X134003Y489797D01*
X134101Y489305D01*
X134451Y488781D01*
X134974Y488432D01*
X135592Y488309D01*
X136209Y488432D01*
X136733Y488781D01*
X137083Y489305D01*
X137206Y489923D01*
X137083Y490540D01*
X136733Y491064D01*
X136209Y491413D01*
X135718Y491511D01*
X130346Y496883D01*
Y499359D01*
X130625Y499776D01*
X130748Y500394D01*
X130625Y501011D01*
X130275Y501535D01*
X129751Y501885D01*
X129134Y502007D01*
D02*
G37*
G36*
X254421Y490500D02*
X251000D01*
Y487079D01*
X251532Y487149D01*
X252493Y487547D01*
X253319Y488181D01*
X253953Y489007D01*
X254351Y489968D01*
X254421Y490500D01*
D02*
G37*
G36*
X250000D02*
X246579D01*
X246649Y489968D01*
X247047Y489007D01*
X247681Y488181D01*
X248507Y487547D01*
X249468Y487149D01*
X250000Y487079D01*
Y490500D01*
D02*
G37*
G36*
X152113Y487689D02*
X151091D01*
Y486667D01*
X151211Y486691D01*
X151737Y487042D01*
X152089Y487568D01*
X152113Y487689D01*
D02*
G37*
G36*
X150091D02*
X149068D01*
X149092Y487568D01*
X149444Y487042D01*
X149970Y486691D01*
X150091Y486667D01*
Y487689D01*
D02*
G37*
G36*
X96063Y493250D02*
X95059Y493118D01*
X94123Y492730D01*
X93320Y492113D01*
X92703Y491310D01*
X92316Y490374D01*
X92183Y489370D01*
X92316Y488366D01*
X92703Y487430D01*
X93320Y486627D01*
X94123Y486010D01*
X95059Y485623D01*
X96063Y485490D01*
X97067Y485623D01*
X98003Y486010D01*
X98806Y486627D01*
X99423Y487430D01*
X99810Y488366D01*
X99943Y489370D01*
X99810Y490374D01*
X99423Y491310D01*
X98806Y492113D01*
X98003Y492730D01*
X97067Y493118D01*
X96063Y493250D01*
D02*
G37*
G36*
X117626Y481837D02*
Y480815D01*
X118648D01*
X118624Y480936D01*
X118273Y481462D01*
X117747Y481813D01*
X117626Y481837D01*
D02*
G37*
G36*
X116626D02*
X116505Y481813D01*
X115979Y481462D01*
X115628Y480936D01*
X115604Y480815D01*
X116626D01*
Y481837D01*
D02*
G37*
G36*
X118648Y479815D02*
X117626D01*
Y478793D01*
X117747Y478817D01*
X118273Y479168D01*
X118624Y479694D01*
X118648Y479815D01*
D02*
G37*
G36*
X116626D02*
X115604D01*
X115628Y479694D01*
X115979Y479168D01*
X116505Y478817D01*
X116626Y478793D01*
Y479815D01*
D02*
G37*
G36*
X96063Y483250D02*
X95059Y483117D01*
X94123Y482730D01*
X93320Y482113D01*
X92703Y481310D01*
X92316Y480374D01*
X92183Y479370D01*
X92316Y478366D01*
X92703Y477430D01*
X93320Y476627D01*
X94123Y476010D01*
X95059Y475623D01*
X96063Y475490D01*
X97067Y475623D01*
X98003Y476010D01*
X98806Y476627D01*
X99423Y477430D01*
X99810Y478366D01*
X99943Y479370D01*
X99810Y480374D01*
X99423Y481310D01*
X98806Y482113D01*
X98003Y482730D01*
X97067Y483117D01*
X96063Y483250D01*
D02*
G37*
G36*
X96563Y473589D02*
Y469870D01*
X100282D01*
X100202Y470479D01*
X99774Y471512D01*
X99093Y472400D01*
X98205Y473081D01*
X97172Y473509D01*
X96563Y473589D01*
D02*
G37*
G36*
X95563D02*
X94954Y473509D01*
X93921Y473081D01*
X93033Y472400D01*
X92352Y471512D01*
X91924Y470479D01*
X91844Y469870D01*
X95563D01*
Y473589D01*
D02*
G37*
G36*
X105815Y470026D02*
Y469004D01*
X106837D01*
X106813Y469125D01*
X106462Y469651D01*
X105936Y470002D01*
X105815Y470026D01*
D02*
G37*
G36*
X104815D02*
X104694Y470002D01*
X104168Y469651D01*
X103817Y469125D01*
X103793Y469004D01*
X104815D01*
Y470026D01*
D02*
G37*
G36*
X106837Y468004D02*
X105815D01*
Y466982D01*
X105936Y467006D01*
X106462Y467357D01*
X106813Y467883D01*
X106837Y468004D01*
D02*
G37*
G36*
X104815D02*
X103793D01*
X103817Y467883D01*
X104168Y467357D01*
X104694Y467006D01*
X104815Y466982D01*
Y468004D01*
D02*
G37*
G36*
X100282Y468870D02*
X96563D01*
Y465151D01*
X97172Y465231D01*
X98205Y465659D01*
X99093Y466340D01*
X99774Y467228D01*
X100202Y468261D01*
X100282Y468870D01*
D02*
G37*
G36*
X95563D02*
X91844D01*
X91924Y468261D01*
X92352Y467228D01*
X93033Y466340D01*
X93921Y465659D01*
X94954Y465231D01*
X95563Y465151D01*
Y468870D01*
D02*
G37*
G36*
X166839Y464121D02*
Y463098D01*
X167861D01*
X167837Y463219D01*
X167485Y463745D01*
X166959Y464097D01*
X166839Y464121D01*
D02*
G37*
G36*
X165839D02*
X165718Y464097D01*
X165192Y463745D01*
X164840Y463219D01*
X164816Y463098D01*
X165839D01*
Y464121D01*
D02*
G37*
G36*
X167861Y462098D02*
X166839D01*
Y461076D01*
X166959Y461100D01*
X167485Y461452D01*
X167837Y461978D01*
X167861Y462098D01*
D02*
G37*
G36*
X165839D02*
X164816D01*
X164840Y461978D01*
X165192Y461452D01*
X165718Y461100D01*
X165839Y461076D01*
Y462098D01*
D02*
G37*
G36*
X236872Y445402D02*
X235947Y445218D01*
X235163Y444695D01*
X234639Y443911D01*
X234455Y442986D01*
X234639Y442061D01*
X235163Y441277D01*
X235947Y440753D01*
X236872Y440569D01*
X237796Y440753D01*
X238580Y441277D01*
X239104Y442061D01*
X239288Y442986D01*
X239104Y443911D01*
X238580Y444695D01*
X237796Y445218D01*
X236872Y445402D01*
D02*
G37*
G36*
X96957Y433609D02*
Y432587D01*
X97979D01*
X97955Y432707D01*
X97603Y433233D01*
X97077Y433585D01*
X96957Y433609D01*
D02*
G37*
G36*
X95957D02*
X95836Y433585D01*
X95310Y433233D01*
X94958Y432707D01*
X94934Y432587D01*
X95957D01*
Y433609D01*
D02*
G37*
G36*
X97979Y431587D02*
X96957D01*
Y430564D01*
X97077Y430588D01*
X97603Y430940D01*
X97955Y431466D01*
X97979Y431587D01*
D02*
G37*
G36*
X95957D02*
X94934D01*
X94958Y431466D01*
X95310Y430940D01*
X95836Y430588D01*
X95957Y430564D01*
Y431587D01*
D02*
G37*
G36*
X172835Y492165D02*
X172217Y492042D01*
X171694Y491692D01*
X171344Y491169D01*
X171221Y490551D01*
Y475984D01*
X171344Y475367D01*
X171694Y474843D01*
X200355Y446182D01*
Y431890D01*
X200478Y431272D01*
X200827Y430749D01*
X201351Y430399D01*
X201969Y430276D01*
X202586Y430399D01*
X203110Y430749D01*
X203459Y431272D01*
X203582Y431890D01*
Y446850D01*
X203459Y447468D01*
X203110Y447991D01*
X174448Y476653D01*
Y490551D01*
X174326Y491169D01*
X173976Y491692D01*
X173452Y492042D01*
X172835Y492165D01*
D02*
G37*
G36*
X150394Y468936D02*
X149776Y468814D01*
X149359Y468535D01*
X144882D01*
X144418Y468443D01*
X144025Y468180D01*
X134182Y458337D01*
X133919Y457944D01*
X133827Y457480D01*
Y449715D01*
X126308Y442196D01*
X126045Y441803D01*
X125953Y441339D01*
Y420771D01*
X125725Y420696D01*
X125453Y420688D01*
X125147Y421147D01*
X124621Y421498D01*
X124500Y421522D01*
Y420000D01*
Y418478D01*
X124621Y418502D01*
X125147Y418853D01*
X125453Y419312D01*
X125725Y419304D01*
X125953Y419229D01*
Y409449D01*
X126045Y408985D01*
X126308Y408592D01*
X127545Y407355D01*
X127643Y406863D01*
X127993Y406339D01*
X128516Y405989D01*
X129134Y405867D01*
X129751Y405989D01*
X130275Y406339D01*
X130625Y406863D01*
X130748Y407480D01*
X130625Y408098D01*
X130275Y408621D01*
X129751Y408971D01*
X129260Y409069D01*
X128378Y409951D01*
Y412168D01*
X128840Y412359D01*
X137388Y403811D01*
X137486Y403320D01*
X137835Y402796D01*
X138359Y402446D01*
X138976Y402323D01*
X139594Y402446D01*
X140117Y402796D01*
X140467Y403320D01*
X140590Y403937D01*
X140467Y404555D01*
X140117Y405078D01*
X139594Y405428D01*
X139102Y405526D01*
X130157Y414471D01*
Y439706D01*
X138259Y447807D01*
X138522Y448201D01*
X138614Y448665D01*
Y455797D01*
X145350Y462534D01*
X145859Y462507D01*
X145923Y462417D01*
X146038Y462067D01*
X145753Y461641D01*
X145630Y461024D01*
X145753Y460406D01*
X146103Y459883D01*
X146627Y459533D01*
X147244Y459410D01*
X147862Y459533D01*
X148278Y459811D01*
X154222D01*
X183111Y430922D01*
X183191Y430521D01*
X183541Y429997D01*
X184064Y429648D01*
X184682Y429525D01*
X185299Y429648D01*
X185823Y429997D01*
X186173Y430521D01*
X186296Y431139D01*
X186173Y431756D01*
X185823Y432280D01*
X185299Y432629D01*
X184717Y432745D01*
X155582Y461881D01*
X155188Y462144D01*
X154724Y462236D01*
X151821D01*
X151715Y462386D01*
X151600Y462736D01*
X151885Y463162D01*
X152007Y463779D01*
X151885Y464397D01*
X151535Y464921D01*
X151011Y465270D01*
X150881Y465296D01*
Y465806D01*
X151011Y465832D01*
X151535Y466182D01*
X151885Y466705D01*
X152007Y467323D01*
X151885Y467940D01*
X151535Y468464D01*
X151011Y468814D01*
X150394Y468936D01*
D02*
G37*
G36*
X123500Y421522D02*
X123379Y421498D01*
X122853Y421147D01*
X122502Y420621D01*
X122478Y420500D01*
X123500D01*
Y421522D01*
D02*
G37*
G36*
Y419500D02*
X122478D01*
X122502Y419379D01*
X122853Y418853D01*
X123379Y418502D01*
X123500Y418478D01*
Y419500D01*
D02*
G37*
G36*
X166839Y413924D02*
Y412902D01*
X167861D01*
X167837Y413022D01*
X167485Y413548D01*
X166959Y413900D01*
X166839Y413924D01*
D02*
G37*
G36*
X165839D02*
X165718Y413900D01*
X165192Y413548D01*
X164840Y413022D01*
X164816Y412902D01*
X165839D01*
Y413924D01*
D02*
G37*
G36*
X167861Y411902D02*
X166839D01*
Y410879D01*
X166959Y410903D01*
X167485Y411255D01*
X167837Y411781D01*
X167861Y411902D01*
D02*
G37*
G36*
X165839D02*
X164816D01*
X164840Y411781D01*
X165192Y411255D01*
X165718Y410903D01*
X165839Y410879D01*
Y411902D01*
D02*
G37*
G36*
X236872Y413906D02*
X235947Y413722D01*
X235163Y413199D01*
X234639Y412415D01*
X234455Y411490D01*
X234639Y410565D01*
X235163Y409781D01*
X235947Y409257D01*
X236872Y409073D01*
X237796Y409257D01*
X238580Y409781D01*
X239104Y410565D01*
X239288Y411490D01*
X239104Y412415D01*
X238580Y413199D01*
X237796Y413722D01*
X236872Y413906D01*
D02*
G37*
G36*
X118500Y409522D02*
Y408500D01*
X119522D01*
X119498Y408621D01*
X119147Y409147D01*
X118621Y409498D01*
X118500Y409522D01*
D02*
G37*
G36*
X117500D02*
X117379Y409498D01*
X116853Y409147D01*
X116502Y408621D01*
X116478Y408500D01*
X117500D01*
Y409522D01*
D02*
G37*
G36*
X92500D02*
Y408500D01*
X93522D01*
X93498Y408621D01*
X93147Y409147D01*
X92621Y409498D01*
X92500Y409522D01*
D02*
G37*
G36*
X91500D02*
X91379Y409498D01*
X90853Y409147D01*
X90502Y408621D01*
X90478Y408500D01*
X91500D01*
Y409522D01*
D02*
G37*
G36*
X144500Y407522D02*
Y406500D01*
X145522D01*
X145498Y406621D01*
X145147Y407147D01*
X144621Y407498D01*
X144500Y407522D01*
D02*
G37*
G36*
X143500D02*
X143379Y407498D01*
X142853Y407147D01*
X142502Y406621D01*
X142478Y406500D01*
X143500D01*
Y407522D01*
D02*
G37*
G36*
X119522Y407500D02*
X118500D01*
Y406478D01*
X118621Y406502D01*
X119147Y406853D01*
X119498Y407379D01*
X119522Y407500D01*
D02*
G37*
G36*
X117500D02*
X116478D01*
X116502Y407379D01*
X116853Y406853D01*
X117379Y406502D01*
X117500Y406478D01*
Y407500D01*
D02*
G37*
G36*
X93522D02*
X92500D01*
Y406478D01*
X92621Y406502D01*
X93147Y406853D01*
X93498Y407379D01*
X93522Y407500D01*
D02*
G37*
G36*
X91500D02*
X90478D01*
X90502Y407379D01*
X90853Y406853D01*
X91379Y406502D01*
X91500Y406478D01*
Y407500D01*
D02*
G37*
G36*
X145522Y405500D02*
X144500D01*
Y404478D01*
X144621Y404502D01*
X145147Y404853D01*
X145498Y405379D01*
X145522Y405500D01*
D02*
G37*
G36*
X143500D02*
X142478D01*
X142502Y405379D01*
X142853Y404853D01*
X143379Y404502D01*
X143500Y404478D01*
Y405500D01*
D02*
G37*
G36*
X143701Y437047D02*
X143083Y436924D01*
X142560Y436574D01*
X142210Y436051D01*
X142087Y435433D01*
X142210Y434816D01*
X142560Y434292D01*
X143083Y433942D01*
X143288Y433902D01*
X149806Y427383D01*
Y399610D01*
X149690Y399436D01*
X149567Y398819D01*
X149690Y398201D01*
X150040Y397678D01*
X150564Y397328D01*
X151181Y397205D01*
X151799Y397328D01*
X152322Y397678D01*
X152672Y398201D01*
X152795Y398819D01*
X152672Y399436D01*
X152556Y399610D01*
Y427953D01*
X152556Y427953D01*
X152451Y428479D01*
X152153Y428925D01*
X152153Y428925D01*
X145232Y435846D01*
X145192Y436051D01*
X144842Y436574D01*
X144318Y436924D01*
X143701Y437047D01*
D02*
G37*
G36*
X96500Y395522D02*
Y394500D01*
X97522D01*
X97498Y394621D01*
X97147Y395147D01*
X96621Y395498D01*
X96500Y395522D01*
D02*
G37*
G36*
X95500D02*
X95379Y395498D01*
X94853Y395147D01*
X94502Y394621D01*
X94478Y394500D01*
X95500D01*
Y395522D01*
D02*
G37*
G36*
X97522Y393500D02*
X96500D01*
Y392478D01*
X96621Y392502D01*
X97147Y392853D01*
X97498Y393379D01*
X97522Y393500D01*
D02*
G37*
G36*
X95500D02*
X94478D01*
X94502Y393379D01*
X94853Y392853D01*
X95379Y392502D01*
X95500Y392478D01*
Y393500D01*
D02*
G37*
G36*
X183571Y392270D02*
Y391248D01*
X184593D01*
X184569Y391369D01*
X184218Y391895D01*
X183692Y392246D01*
X183571Y392270D01*
D02*
G37*
G36*
X182571D02*
X182450Y392246D01*
X181924Y391895D01*
X181573Y391369D01*
X181549Y391248D01*
X182571D01*
Y392270D01*
D02*
G37*
G36*
X184593Y390248D02*
X183571D01*
Y389226D01*
X183692Y389250D01*
X184218Y389601D01*
X184569Y390127D01*
X184593Y390248D01*
D02*
G37*
G36*
X182571D02*
X181549D01*
X181573Y390127D01*
X181924Y389601D01*
X182450Y389250D01*
X182571Y389226D01*
Y390248D01*
D02*
G37*
G36*
X119500Y381522D02*
Y380500D01*
X120522D01*
X120498Y380621D01*
X120147Y381147D01*
X119621Y381498D01*
X119500Y381522D01*
D02*
G37*
G36*
X118500D02*
X118379Y381498D01*
X117853Y381147D01*
X117502Y380621D01*
X117478Y380500D01*
X118500D01*
Y381522D01*
D02*
G37*
G36*
X91500D02*
Y380500D01*
X92522D01*
X92498Y380621D01*
X92147Y381147D01*
X91621Y381498D01*
X91500Y381522D01*
D02*
G37*
G36*
X90500D02*
X90379Y381498D01*
X89853Y381147D01*
X89502Y380621D01*
X89478Y380500D01*
X90500D01*
Y381522D01*
D02*
G37*
G36*
X120522Y379500D02*
X119500D01*
Y378478D01*
X119621Y378502D01*
X120147Y378853D01*
X120498Y379379D01*
X120522Y379500D01*
D02*
G37*
G36*
X118500D02*
X117478D01*
X117502Y379379D01*
X117853Y378853D01*
X118379Y378502D01*
X118500Y378478D01*
Y379500D01*
D02*
G37*
G36*
X92522D02*
X91500D01*
Y378478D01*
X91621Y378502D01*
X92147Y378853D01*
X92498Y379379D01*
X92522Y379500D01*
D02*
G37*
G36*
X90500D02*
X89478D01*
X89502Y379379D01*
X89853Y378853D01*
X90379Y378502D01*
X90500Y378478D01*
Y379500D01*
D02*
G37*
G36*
X92000Y402614D02*
X91382Y402491D01*
X90859Y402141D01*
X90509Y401617D01*
X90386Y401000D01*
Y388000D01*
X90509Y387383D01*
X90859Y386859D01*
X102859Y374859D01*
X103383Y374509D01*
X104000Y374386D01*
X136000D01*
X136618Y374509D01*
X137141Y374859D01*
X139141Y376859D01*
X139491Y377382D01*
X139614Y378000D01*
X139491Y378618D01*
X139141Y379141D01*
X138618Y379491D01*
X138000Y379614D01*
X137382Y379491D01*
X136859Y379141D01*
X135332Y377614D01*
X104668D01*
X93614Y388668D01*
Y401000D01*
X93491Y401617D01*
X93141Y402141D01*
X92617Y402491D01*
X92000Y402614D01*
D02*
G37*
G36*
X139500Y370522D02*
Y369500D01*
X140522D01*
X140498Y369621D01*
X140147Y370147D01*
X139621Y370498D01*
X139500Y370522D01*
D02*
G37*
G36*
X138500D02*
X138379Y370498D01*
X137853Y370147D01*
X137502Y369621D01*
X137478Y369500D01*
X138500D01*
Y370522D01*
D02*
G37*
G36*
X101500Y369522D02*
Y368500D01*
X102522D01*
X102498Y368621D01*
X102147Y369147D01*
X101621Y369498D01*
X101500Y369522D01*
D02*
G37*
G36*
X100500D02*
X100379Y369498D01*
X99853Y369147D01*
X99502Y368621D01*
X99478Y368500D01*
X100500D01*
Y369522D01*
D02*
G37*
G36*
X140522Y368500D02*
X139500D01*
Y367478D01*
X139621Y367502D01*
X140147Y367853D01*
X140498Y368379D01*
X140522Y368500D01*
D02*
G37*
G36*
X138500D02*
X137478D01*
X137502Y368379D01*
X137853Y367853D01*
X138379Y367502D01*
X138500Y367478D01*
Y368500D01*
D02*
G37*
G36*
X102522Y367500D02*
X101500D01*
Y366478D01*
X101621Y366502D01*
X102147Y366853D01*
X102498Y367379D01*
X102522Y367500D01*
D02*
G37*
G36*
X100500D02*
X99478D01*
X99502Y367379D01*
X99853Y366853D01*
X100379Y366502D01*
X100500Y366478D01*
Y367500D01*
D02*
G37*
G36*
X126484Y364711D02*
Y363689D01*
X127506D01*
X127482Y363810D01*
X127131Y364336D01*
X126605Y364687D01*
X126484Y364711D01*
D02*
G37*
G36*
X125484D02*
X125364Y364687D01*
X124838Y364336D01*
X124486Y363810D01*
X124462Y363689D01*
X125484D01*
Y364711D01*
D02*
G37*
G36*
X127506Y362689D02*
X126484D01*
Y361667D01*
X126605Y361691D01*
X127131Y362042D01*
X127482Y362568D01*
X127506Y362689D01*
D02*
G37*
G36*
X125484D02*
X124462D01*
X124486Y362568D01*
X124838Y362042D01*
X125364Y361691D01*
X125484Y361667D01*
Y362689D01*
D02*
G37*
G36*
X255000Y365535D02*
X253725Y365410D01*
X252499Y365038D01*
X251369Y364434D01*
X250379Y363621D01*
X249566Y362631D01*
X248962Y361501D01*
X248590Y360275D01*
X248465Y359000D01*
X248590Y357725D01*
X248962Y356499D01*
X249566Y355369D01*
X250379Y354379D01*
X251369Y353566D01*
X252499Y352962D01*
X253725Y352590D01*
X255000Y352465D01*
X256275Y352590D01*
X257501Y352962D01*
X258631Y353566D01*
X259621Y354379D01*
X260434Y355369D01*
X261038Y356499D01*
X261410Y357725D01*
X261535Y359000D01*
X261410Y360275D01*
X261038Y361501D01*
X260434Y362631D01*
X259621Y363621D01*
X258631Y364434D01*
X257501Y365038D01*
X256275Y365410D01*
X255000Y365535D01*
D02*
G37*
G36*
X95000D02*
X93725Y365410D01*
X92499Y365038D01*
X91369Y364434D01*
X90379Y363621D01*
X89566Y362631D01*
X88962Y361501D01*
X88590Y360275D01*
X88465Y359000D01*
X88590Y357725D01*
X88962Y356499D01*
X89566Y355369D01*
X90379Y354379D01*
X91369Y353566D01*
X92499Y352962D01*
X93725Y352590D01*
X95000Y352465D01*
X96275Y352590D01*
X97501Y352962D01*
X98631Y353566D01*
X99621Y354379D01*
X100434Y355369D01*
X101038Y356499D01*
X101410Y357725D01*
X101535Y359000D01*
X101410Y360275D01*
X101038Y361501D01*
X100434Y362631D01*
X99621Y363621D01*
X98631Y364434D01*
X97501Y365038D01*
X96275Y365410D01*
X95000Y365535D01*
D02*
G37*
%LPD*%
D57*
X96063Y479370D02*
D03*
Y489370D02*
D03*
Y469370D02*
D03*
D58*
Y499370D02*
D03*
D63*
X104000Y376000D02*
X136000D01*
X92000Y388000D02*
Y401000D01*
Y388000D02*
X104000Y376000D01*
X136000D02*
X138000Y378000D01*
X201969Y431890D02*
Y446850D01*
X172835Y475984D02*
X201969Y446850D01*
X172835Y475984D02*
Y490551D01*
D64*
X144882Y467323D02*
X150394D01*
X135039Y457480D02*
X144882Y467323D01*
X129134Y496381D02*
Y500394D01*
X184609Y431139D02*
X184682D01*
X154724Y461024D02*
X184609Y431139D01*
X147244Y461024D02*
X154724D01*
X129134Y496381D02*
X135592Y489923D01*
X127165Y409449D02*
Y441339D01*
X135039Y449213D01*
Y457480D01*
X128945Y440208D02*
X137402Y448665D01*
X144882Y463779D02*
X150394D01*
X137402Y448665D02*
Y456299D01*
X144882Y463779D01*
X128945Y413969D02*
Y440208D01*
X127165Y409449D02*
X129134Y407480D01*
X128945Y413969D02*
X138976Y403937D01*
D65*
X151181Y398819D02*
Y427953D01*
X143701Y435433D02*
X151181Y427953D01*
D66*
X250500Y501000D02*
D03*
Y491000D02*
D03*
D67*
X144000Y406000D02*
D03*
X124000Y420000D02*
D03*
X119000Y380000D02*
D03*
X101000Y368000D02*
D03*
X91000Y380000D02*
D03*
X96000Y394000D02*
D03*
X92000Y408000D02*
D03*
X118000D02*
D03*
X125984Y363189D02*
D03*
X166339Y412402D02*
D03*
Y462598D02*
D03*
X139000Y369000D02*
D03*
X183071Y390748D02*
D03*
X96457Y432087D02*
D03*
X150591Y488189D02*
D03*
X117126Y480315D02*
D03*
X105315Y468504D02*
D03*
X122047Y501968D02*
D03*
D68*
X138000Y378000D02*
D03*
X92000Y401000D02*
D03*
X201969Y431890D02*
D03*
X172835Y490551D02*
D03*
X129134Y500394D02*
D03*
X184682Y431139D02*
D03*
X143701Y435433D02*
D03*
X151181Y398819D02*
D03*
X147244Y461024D02*
D03*
X150394Y467323D02*
D03*
X135592Y489923D02*
D03*
X150394Y463779D02*
D03*
X138976Y403937D02*
D03*
X129134Y407480D02*
D03*
M02*
