G04*
G04 #@! TF.GenerationSoftware,Altium Limited,Altium Designer,20.0.13 (296)*
G04*
G04 Layer_Physical_Order=1*
G04 Layer_Color=255*
%FSLAX25Y25*%
%MOIN*%
G70*
G01*
G75*
%ADD18R,0.05118X0.07087*%
%ADD19R,0.06496X0.04724*%
%ADD20R,0.01181X0.05709*%
%ADD21R,0.05709X0.01181*%
%ADD22R,0.07087X0.04842*%
%ADD23R,0.05512X0.06299*%
%ADD24R,0.08661X0.04724*%
%ADD25R,0.05512X0.04724*%
%ADD26R,0.06299X0.02756*%
%ADD27R,0.03740X0.10236*%
%ADD28R,0.19291X0.24410*%
%ADD29R,0.04842X0.07087*%
%ADD30R,0.07087X0.05118*%
%ADD31R,0.05118X0.04331*%
%ADD32R,0.04724X0.04724*%
%ADD33R,0.00984X0.03150*%
%ADD34R,0.03150X0.00984*%
%ADD35R,0.10236X0.10630*%
%ADD36R,0.05315X0.04528*%
%ADD37R,0.01378X0.01968*%
%ADD38R,0.07087X0.04331*%
%ADD57C,0.06496*%
%ADD58R,0.06496X0.06496*%
%ADD62C,0.03937*%
%ADD63C,0.01968*%
%ADD64C,0.01181*%
%ADD65C,0.01500*%
%ADD66C,0.05906*%
%ADD67C,0.01181*%
%ADD68C,0.01968*%
G36*
X262969Y351205D02*
X87425D01*
Y526748D01*
X262969D01*
Y351205D01*
D02*
G37*
%LPC*%
G36*
X255000Y525535D02*
X253725Y525410D01*
X252499Y525038D01*
X251369Y524434D01*
X250379Y523621D01*
X249566Y522631D01*
X248962Y521501D01*
X248590Y520275D01*
X248465Y519000D01*
X248590Y517725D01*
X248962Y516499D01*
X249566Y515369D01*
X250379Y514379D01*
X251369Y513566D01*
X252499Y512962D01*
X253725Y512590D01*
X255000Y512465D01*
X256275Y512590D01*
X257501Y512962D01*
X258631Y513566D01*
X259621Y514379D01*
X260434Y515369D01*
X261038Y516499D01*
X261410Y517725D01*
X261535Y519000D01*
X261410Y520275D01*
X261038Y521501D01*
X260434Y522631D01*
X259621Y523621D01*
X258631Y524434D01*
X257501Y525038D01*
X256275Y525410D01*
X255000Y525535D01*
D02*
G37*
G36*
X95000D02*
X93725Y525410D01*
X92499Y525038D01*
X91369Y524434D01*
X90379Y523621D01*
X89566Y522631D01*
X88962Y521501D01*
X88590Y520275D01*
X88465Y519000D01*
X88590Y517725D01*
X88962Y516499D01*
X89566Y515369D01*
X90379Y514379D01*
X91369Y513566D01*
X92499Y512962D01*
X93725Y512590D01*
X95000Y512465D01*
X96275Y512590D01*
X97501Y512962D01*
X98631Y513566D01*
X99621Y514379D01*
X100434Y515369D01*
X101038Y516499D01*
X101410Y517725D01*
X101535Y519000D01*
X101410Y520275D01*
X101038Y521501D01*
X100434Y522631D01*
X99621Y523621D01*
X98631Y524434D01*
X97501Y525038D01*
X96275Y525410D01*
X95000Y525535D01*
D02*
G37*
G36*
X230646Y524957D02*
X220500D01*
Y512252D01*
X230646D01*
Y524957D01*
D02*
G37*
G36*
X219500D02*
X209354D01*
Y512252D01*
X219500D01*
Y524957D01*
D02*
G37*
G36*
X176421Y514201D02*
X173500D01*
Y510157D01*
X176421D01*
Y514201D01*
D02*
G37*
G36*
X172500D02*
X169579D01*
Y510157D01*
X172500D01*
Y514201D01*
D02*
G37*
G36*
X176421Y509158D02*
X173500D01*
Y505114D01*
X176421D01*
Y509158D01*
D02*
G37*
G36*
X172500D02*
X169579D01*
Y505114D01*
X172500D01*
Y509158D01*
D02*
G37*
G36*
X202244Y524555D02*
X181756D01*
Y504105D01*
X174051D01*
X173381Y504017D01*
X172757Y503758D01*
X172400Y503484D01*
X171719D01*
X171563Y503515D01*
X170420D01*
X157795Y516141D01*
X157271Y516491D01*
X156654Y516614D01*
X111693D01*
X111075Y516491D01*
X110552Y516141D01*
X97627Y503217D01*
X92216D01*
Y497806D01*
X90091Y495680D01*
X89741Y495157D01*
X89619Y494539D01*
Y463098D01*
X89741Y462481D01*
X90091Y461957D01*
X93347Y458702D01*
X93871Y458352D01*
X94488Y458229D01*
X103198D01*
X109009Y452418D01*
X109532Y452068D01*
X109551Y452064D01*
Y446858D01*
X111095D01*
Y445142D01*
X109551D01*
Y439140D01*
X103780Y433369D01*
X103430Y432846D01*
X103308Y432228D01*
Y431307D01*
X100583D01*
Y427668D01*
X96890Y423976D01*
X96541Y423452D01*
X96418Y422835D01*
Y415748D01*
X96541Y415131D01*
X96890Y414607D01*
X98670Y412828D01*
Y411142D01*
X97134D01*
Y406055D01*
X94441D01*
X93823Y405932D01*
X93300Y405582D01*
X90859Y403141D01*
X90509Y402618D01*
X90386Y402000D01*
Y401000D01*
X90509Y400383D01*
X90859Y399859D01*
X91382Y399509D01*
X92000Y399386D01*
X92617Y399509D01*
X93141Y399859D01*
X93491Y400383D01*
X93614Y401000D01*
Y401332D01*
X95109Y402827D01*
X98716D01*
X99079Y402441D01*
Y397385D01*
X99171Y396921D01*
X99434Y396528D01*
X101792Y394170D01*
X101953Y394063D01*
Y393461D01*
X104528D01*
Y392461D01*
X101953D01*
Y392204D01*
X97684D01*
X97220Y392112D01*
X96827Y391849D01*
X94143Y389165D01*
X93880Y388772D01*
X93788Y388308D01*
Y371000D01*
X93880Y370536D01*
X94143Y370143D01*
X102143Y362143D01*
X102536Y361880D01*
X103000Y361788D01*
X103842D01*
Y358858D01*
X110158D01*
Y367142D01*
X103842D01*
Y364579D01*
X103342Y364372D01*
X101673Y366041D01*
X101800Y366622D01*
X102147Y366853D01*
X102498Y367379D01*
X102622Y368000D01*
X102621Y368003D01*
X103041Y368457D01*
X105791D01*
Y372500D01*
X102732D01*
Y369170D01*
X102232Y369019D01*
X102147Y369147D01*
X101621Y369498D01*
X101500Y369522D01*
Y368000D01*
X100500D01*
Y369522D01*
X100379Y369498D01*
X99853Y369147D01*
X99622Y368800D01*
X99041Y368673D01*
X96212Y371502D01*
Y387806D01*
X98186Y389780D01*
X101953D01*
Y389524D01*
X104527D01*
Y388524D01*
X101953D01*
Y387531D01*
X102354D01*
Y385965D01*
X106193D01*
Y384807D01*
X106164Y384763D01*
X106071Y384299D01*
X106164Y383835D01*
X106170Y383826D01*
Y382421D01*
X106193Y382304D01*
Y382126D01*
X106228D01*
X106262Y381957D01*
X106525Y381564D01*
X107410Y380678D01*
X107803Y380415D01*
X107887Y380399D01*
X110050Y378235D01*
X110444Y377972D01*
X110908Y377880D01*
X112098D01*
X114551Y375427D01*
Y368858D01*
X120866D01*
Y371386D01*
X123695D01*
X124083Y371463D01*
X124583Y371134D01*
Y370591D01*
X128626D01*
Y373650D01*
X127280D01*
X127088Y374112D01*
X127426Y374449D01*
X136063D01*
X136680Y374572D01*
X137204Y374922D01*
X140267Y377985D01*
X140617Y378508D01*
X140740Y379126D01*
Y384827D01*
X142972D01*
Y390748D01*
X135280D01*
Y389401D01*
X133594D01*
X132972Y390022D01*
Y393717D01*
X134358D01*
X134822Y393809D01*
X135215Y394072D01*
X136994Y395850D01*
X142972D01*
Y401772D01*
X140189D01*
Y402903D01*
X140467Y403320D01*
X140590Y403937D01*
X140467Y404555D01*
X140117Y405078D01*
X139594Y405428D01*
X138976Y405551D01*
X138359Y405428D01*
X137835Y405078D01*
X137486Y404555D01*
X137363Y403937D01*
X137486Y403320D01*
X137764Y402903D01*
Y401772D01*
X135280D01*
Y397565D01*
X133856Y396141D01*
X128824D01*
X128633Y396603D01*
X129204Y397174D01*
X129466Y397568D01*
X129559Y398031D01*
Y398850D01*
X132972D01*
Y404772D01*
X130346D01*
Y406446D01*
X130625Y406863D01*
X130748Y407480D01*
X130625Y408098D01*
X130275Y408621D01*
X129751Y408971D01*
X129134Y409094D01*
X128516Y408971D01*
X127993Y408621D01*
X127643Y408098D01*
X127520Y407480D01*
X127643Y406863D01*
X127922Y406446D01*
Y404772D01*
X125279D01*
Y398850D01*
X126479D01*
X126723Y398350D01*
X126538Y398110D01*
X119882D01*
X119418Y398018D01*
X119374Y397988D01*
X118618D01*
Y399153D01*
X117126D01*
Y399654D01*
X116626D01*
Y402228D01*
X115869Y402228D01*
X115760Y402252D01*
X115596Y402298D01*
X115524Y402325D01*
X115377Y402455D01*
X115293Y402743D01*
X115275Y402824D01*
X115268Y402876D01*
X115268Y402924D01*
Y406500D01*
X112209D01*
Y402457D01*
X114800D01*
X114929Y402457D01*
X115188Y402164D01*
X115251Y401893D01*
X115226Y401827D01*
X106193D01*
Y397988D01*
X102354D01*
Y397690D01*
X101892Y397499D01*
X101504Y397888D01*
Y402858D01*
X103449D01*
Y411142D01*
X101897D01*
Y413496D01*
X101774Y414114D01*
X101425Y414637D01*
X99645Y416416D01*
Y422166D01*
X100083Y422604D01*
X100583Y422397D01*
Y417118D01*
X106504D01*
Y418866D01*
X111319D01*
X111436Y418890D01*
X116248D01*
Y424614D01*
X109736D01*
Y421291D01*
X106504D01*
Y423039D01*
X101225D01*
X101018Y423539D01*
X102865Y425386D01*
X106504D01*
Y429568D01*
X106535Y429724D01*
Y431560D01*
X111833Y436858D01*
X115866D01*
Y439788D01*
X119703D01*
X119895Y439326D01*
X114202Y433633D01*
X113939Y433240D01*
X113847Y432776D01*
Y431504D01*
X109736D01*
Y425779D01*
X116248D01*
Y430198D01*
X116271Y430315D01*
Y432273D01*
X121762Y437764D01*
X131450D01*
X131914Y437856D01*
X132307Y438119D01*
X132999Y438811D01*
X133262Y439204D01*
X133354Y439668D01*
Y440913D01*
X136672D01*
Y433695D01*
X135071Y432094D01*
X130701D01*
Y425755D01*
X130130Y425185D01*
X129832Y424739D01*
X129727Y424213D01*
X129727Y424213D01*
Y416454D01*
X129727Y416454D01*
X129832Y415928D01*
X130130Y415482D01*
X132656Y412956D01*
Y409373D01*
X138971D01*
Y414900D01*
X134601D01*
X133484Y416017D01*
X133675Y416479D01*
X135253D01*
Y419645D01*
Y422810D01*
X132477D01*
Y423643D01*
X132645Y423811D01*
X137016D01*
Y430150D01*
X138862Y431997D01*
X139362Y431789D01*
X139362Y431685D01*
Y423811D01*
X143596D01*
Y422408D01*
X141651D01*
Y416881D01*
X147966D01*
Y422408D01*
X146020D01*
Y424680D01*
X145928Y425144D01*
X145677Y425520D01*
Y432094D01*
X143440D01*
Y432576D01*
X143347Y433040D01*
X143085Y433432D01*
X143086Y433436D01*
X143332Y433893D01*
X143701Y433819D01*
X144318Y433942D01*
X144842Y434292D01*
X145192Y434816D01*
X145315Y435433D01*
X145192Y436051D01*
X144842Y436574D01*
X144318Y436924D01*
X144272Y436933D01*
X143359Y437846D01*
Y440512D01*
X143453D01*
Y444366D01*
Y448220D01*
X142362D01*
Y447819D01*
X128984D01*
Y444483D01*
X128961Y444366D01*
Y442604D01*
X128569Y442212D01*
X115866D01*
Y445142D01*
X114322D01*
Y446858D01*
X115866D01*
Y449788D01*
X117474D01*
X117946Y449316D01*
X118339Y449053D01*
X118803Y448961D01*
X124366D01*
X124483Y448984D01*
X127819D01*
Y450551D01*
X128220D01*
Y451642D01*
X124366D01*
X120512D01*
Y451385D01*
X119305D01*
X118834Y451857D01*
X118440Y452120D01*
X117976Y452212D01*
X115866D01*
Y455142D01*
X111290D01*
X111134Y455173D01*
X110818D01*
X105007Y460984D01*
X104484Y461333D01*
X103866Y461456D01*
X95157D01*
X92846Y463767D01*
Y465854D01*
X93346Y466100D01*
X93921Y465659D01*
X94954Y465231D01*
X95563Y465151D01*
Y469370D01*
Y473589D01*
X94954Y473509D01*
X93921Y473081D01*
X93346Y472640D01*
X92846Y472886D01*
Y476466D01*
X93176Y476578D01*
X93346Y476607D01*
X94123Y476010D01*
X95059Y475623D01*
X96063Y475490D01*
X97067Y475623D01*
X98003Y476010D01*
X98304Y476241D01*
X99168Y475377D01*
X99562Y475114D01*
X100026Y475022D01*
X108895D01*
X109138Y474622D01*
Y471760D01*
X113386D01*
Y471260D01*
X113886D01*
Y467898D01*
X117634D01*
Y471565D01*
X118096Y471757D01*
X118883Y470970D01*
X119276Y470707D01*
X119740Y470614D01*
X120913D01*
Y468669D01*
Y464732D01*
Y460096D01*
X120451Y459905D01*
X119263Y461093D01*
X118869Y461356D01*
X118405Y461448D01*
X117232D01*
Y463197D01*
X109539D01*
Y457276D01*
X117232D01*
Y459024D01*
X117903D01*
X119737Y457190D01*
X120131Y456927D01*
X120595Y456835D01*
X120913D01*
Y453732D01*
X120512D01*
Y452642D01*
X124366D01*
X128220D01*
Y453732D01*
X127819D01*
Y458827D01*
Y462764D01*
Y466701D01*
Y471133D01*
X128281Y471324D01*
X128808Y470796D01*
X129202Y470534D01*
X129666Y470441D01*
X133418D01*
X133882Y470534D01*
X134275Y470796D01*
X134967Y471488D01*
X135230Y471881D01*
X135322Y472345D01*
Y474181D01*
X142740D01*
Y464315D01*
X142833Y463851D01*
X143096Y463458D01*
X145655Y460898D01*
X145753Y460406D01*
X146103Y459883D01*
X146627Y459533D01*
X147244Y459410D01*
X147862Y459533D01*
X148385Y459883D01*
X148735Y460406D01*
X148858Y461024D01*
X148735Y461641D01*
X148385Y462165D01*
X147862Y462514D01*
X147370Y462612D01*
X145165Y464817D01*
Y474181D01*
X152394D01*
Y473591D01*
X152486Y473127D01*
X152749Y472733D01*
X153598Y471884D01*
X153779Y471449D01*
X153779D01*
X153779Y471449D01*
Y470358D01*
X157634D01*
X161488D01*
Y471449D01*
X161087D01*
Y473016D01*
X157751D01*
X157634Y473039D01*
X155872D01*
X154819Y474093D01*
Y481671D01*
X156573Y483425D01*
X163142D01*
Y486585D01*
X163555Y486667D01*
X164078Y487016D01*
X170924Y493863D01*
X171386Y493671D01*
Y491232D01*
X171344Y491169D01*
X171221Y490551D01*
X171344Y489934D01*
X171694Y489410D01*
X172217Y489060D01*
X172835Y488938D01*
X173452Y489060D01*
X173976Y489410D01*
X174141Y489575D01*
X174491Y490099D01*
X174614Y490717D01*
Y495201D01*
X176020D01*
Y498927D01*
X184323D01*
X184323Y498927D01*
X184491Y498949D01*
X202244D01*
Y524555D01*
D02*
G37*
G36*
X219500Y511252D02*
X209354D01*
Y498547D01*
X219500D01*
Y511252D01*
D02*
G37*
G36*
X230646D02*
X220500D01*
Y498547D01*
X227961D01*
X228152Y498085D01*
X227783Y497716D01*
X227323D01*
X226653Y497627D01*
X226029Y497369D01*
X225493Y496957D01*
X225493Y496957D01*
X214901Y486367D01*
X214490Y485830D01*
X214231Y485206D01*
X214211Y485052D01*
X213711Y485084D01*
Y486063D01*
X213623Y486733D01*
X213492Y487049D01*
Y491878D01*
X208555D01*
Y486910D01*
X208523Y486832D01*
X208435Y486161D01*
X208523Y485491D01*
X208533Y485467D01*
Y480217D01*
X208533Y480217D01*
X208621Y479546D01*
X208880Y478922D01*
X208968Y478807D01*
X208954Y478575D01*
X208896Y478238D01*
X208851Y478188D01*
X208515Y478165D01*
X208398Y478165D01*
X205815D01*
Y474122D01*
X208874D01*
Y477675D01*
X208874Y477742D01*
X209345Y478178D01*
X209508Y478169D01*
X213575Y474102D01*
Y470101D01*
X208874D01*
Y473122D01*
X205315D01*
Y473622D01*
X204815D01*
Y478165D01*
X203751D01*
X203505Y478436D01*
X203391Y478665D01*
X203467Y479244D01*
Y485467D01*
X203477Y485491D01*
X203566Y486161D01*
X203477Y486832D01*
X203445Y486910D01*
Y491878D01*
X198508D01*
Y487049D01*
X198377Y486733D01*
X198289Y486063D01*
X198289Y486063D01*
Y480316D01*
X195402Y477429D01*
X190779D01*
Y471390D01*
X194272D01*
X194665Y470878D01*
X199862Y465681D01*
X199862Y465681D01*
X200398Y465270D01*
X201023Y465011D01*
X201693Y464923D01*
X222579D01*
X222579Y464923D01*
X223249Y465011D01*
X223873Y465270D01*
X224410Y465681D01*
X227587Y468858D01*
X230240D01*
Y473480D01*
X230807Y474047D01*
X230807Y474047D01*
X231219Y474583D01*
X231477Y475208D01*
X231565Y475878D01*
X231565Y475878D01*
Y486161D01*
X231477Y486832D01*
X231445Y486910D01*
Y491878D01*
X228786D01*
X228535Y492378D01*
X228654Y492538D01*
X228855D01*
X228855Y492538D01*
X229525Y492626D01*
X230150Y492884D01*
X230686Y493296D01*
X235801Y498411D01*
X248041D01*
X248709Y497898D01*
X249573Y497540D01*
X250500Y497418D01*
X251427Y497540D01*
X252291Y497898D01*
X253033Y498467D01*
X253602Y499209D01*
X253960Y500073D01*
X254082Y501000D01*
X253960Y501927D01*
X253602Y502791D01*
X253033Y503533D01*
X252291Y504102D01*
X251427Y504460D01*
X250500Y504582D01*
X249573Y504460D01*
X248709Y504102D01*
X248041Y503589D01*
X234729D01*
X234729Y503589D01*
X234058Y503501D01*
X233434Y503242D01*
X232898Y502831D01*
X231108Y501041D01*
X230646Y501232D01*
Y511252D01*
D02*
G37*
G36*
X251000Y494921D02*
Y491500D01*
X254421D01*
X254351Y492032D01*
X253953Y492993D01*
X253319Y493819D01*
X252493Y494453D01*
X251532Y494851D01*
X251000Y494921D01*
D02*
G37*
G36*
X250000D02*
X249468Y494851D01*
X248507Y494453D01*
X247681Y493819D01*
X247047Y492993D01*
X246649Y492032D01*
X246579Y491500D01*
X250000D01*
Y494921D01*
D02*
G37*
G36*
X254421Y490500D02*
X251000D01*
Y487079D01*
X251532Y487149D01*
X252493Y487547D01*
X253319Y488181D01*
X253953Y489007D01*
X254351Y489968D01*
X254421Y490500D01*
D02*
G37*
G36*
X250000D02*
X246579D01*
X246649Y489968D01*
X247047Y489007D01*
X247681Y488181D01*
X248507Y487547D01*
X249468Y487149D01*
X250000Y487079D01*
Y490500D01*
D02*
G37*
G36*
X185894Y492279D02*
X183524D01*
Y486661D01*
X185894D01*
Y492279D01*
D02*
G37*
G36*
X182524D02*
X180154D01*
Y486661D01*
X182524D01*
Y492279D01*
D02*
G37*
G36*
X185894Y485662D02*
X183524D01*
Y480043D01*
X185894D01*
Y485662D01*
D02*
G37*
G36*
X182524D02*
X180154D01*
Y480043D01*
X182524D01*
Y485662D01*
D02*
G37*
G36*
X189150Y477831D02*
X185106D01*
Y474909D01*
X189150D01*
Y477831D01*
D02*
G37*
G36*
X184106D02*
X180063D01*
Y474909D01*
X184106D01*
Y477831D01*
D02*
G37*
G36*
X242059Y477543D02*
X239000D01*
Y473500D01*
X242059D01*
Y477543D01*
D02*
G37*
G36*
X238000D02*
X234941D01*
Y473500D01*
X238000D01*
Y477543D01*
D02*
G37*
G36*
X189150Y473910D02*
X185106D01*
Y470988D01*
X189150D01*
Y473910D01*
D02*
G37*
G36*
X184106D02*
X180063D01*
Y470988D01*
X184106D01*
Y473910D01*
D02*
G37*
G36*
X96563Y473589D02*
Y469870D01*
X100282D01*
X100202Y470479D01*
X99774Y471512D01*
X99093Y472400D01*
X98205Y473081D01*
X97172Y473509D01*
X96563Y473589D01*
D02*
G37*
G36*
X105815Y470026D02*
Y469004D01*
X106837D01*
X106813Y469125D01*
X106462Y469651D01*
X105936Y470002D01*
X105815Y470026D01*
D02*
G37*
G36*
X104815D02*
X104694Y470002D01*
X104168Y469651D01*
X103817Y469125D01*
X103793Y469004D01*
X104815D01*
Y470026D01*
D02*
G37*
G36*
X161488Y469358D02*
X157634D01*
X153779D01*
Y469102D01*
X151174D01*
X150710Y469010D01*
X150553Y468905D01*
X150394Y468936D01*
X149776Y468814D01*
X149253Y468464D01*
X148903Y467940D01*
X148780Y467323D01*
X148903Y466705D01*
X149253Y466182D01*
X149776Y465832D01*
X149906Y465806D01*
Y465296D01*
X149776Y465270D01*
X149253Y464921D01*
X148903Y464397D01*
X148780Y463779D01*
X148903Y463162D01*
X149253Y462639D01*
X149776Y462289D01*
X150394Y462166D01*
X151011Y462289D01*
X151535Y462639D01*
X151885Y463162D01*
X151982Y463654D01*
X153038Y464709D01*
X154181D01*
Y460795D01*
Y456858D01*
Y452921D01*
Y448984D01*
X161087D01*
Y452898D01*
X166631D01*
X184881Y434648D01*
X185274Y434385D01*
X185738Y434293D01*
X191785D01*
Y433651D01*
X191785Y433529D01*
Y433151D01*
X191785Y433029D01*
Y432351D01*
X185716D01*
X185299Y432629D01*
X184682Y432752D01*
X184064Y432629D01*
X183541Y432280D01*
X183191Y431756D01*
X183068Y431139D01*
X183191Y430521D01*
X183541Y429997D01*
X184064Y429648D01*
X184682Y429525D01*
X185299Y429648D01*
X185716Y429926D01*
X191785D01*
Y429320D01*
X191785Y429198D01*
Y428821D01*
X191385Y428458D01*
X182486D01*
X177764Y433180D01*
Y437213D01*
X169480D01*
Y434881D01*
X167528D01*
Y435638D01*
X160550D01*
X160433Y435661D01*
X160362D01*
X160205Y435766D01*
X159741Y435858D01*
X152986D01*
X148392Y440451D01*
X148584Y440913D01*
X153016D01*
Y447819D01*
X145543D01*
Y448220D01*
X144453D01*
Y444366D01*
Y440512D01*
X144957D01*
X145064Y440351D01*
X151627Y433788D01*
X152020Y433526D01*
X152484Y433433D01*
X159244D01*
Y429323D01*
X167528D01*
Y431654D01*
X169480D01*
Y430898D01*
X175482D01*
X180204Y426176D01*
Y415557D01*
X170020Y405373D01*
X169724Y404929D01*
X165051D01*
Y399008D01*
X172744D01*
Y403191D01*
X172775Y403346D01*
Y403564D01*
X182958Y413747D01*
X183308Y414271D01*
X183431Y414888D01*
Y425230D01*
X191453D01*
X191785Y424868D01*
Y424490D01*
X191785D01*
Y420561D01*
X191383D01*
Y418683D01*
X195533D01*
Y417683D01*
X191383D01*
Y415805D01*
X191785D01*
Y411998D01*
X191785Y411876D01*
Y411498D01*
X191785Y411376D01*
Y407667D01*
X191785Y407545D01*
Y407167D01*
X191785Y407045D01*
Y403214D01*
X194139D01*
Y400966D01*
X197895D01*
X201651D01*
Y403828D01*
X199281D01*
Y407045D01*
X199281Y407167D01*
Y407545D01*
X199281Y407667D01*
Y411376D01*
X199281Y411498D01*
Y411876D01*
X199281Y411998D01*
Y414114D01*
X199571Y414403D01*
X199652D01*
X200115Y414496D01*
X200509Y414759D01*
X208337Y422587D01*
X208600Y422981D01*
X208693Y423445D01*
Y436615D01*
X208600Y437079D01*
X208337Y437472D01*
X198889Y446920D01*
X198496Y447183D01*
X198032Y447275D01*
X181998D01*
X170369Y458904D01*
X169976Y459167D01*
X169512Y459260D01*
X161087D01*
Y464732D01*
Y468268D01*
X161488D01*
Y469358D01*
D02*
G37*
G36*
X242059Y472500D02*
X239000D01*
Y468457D01*
X242059D01*
Y472500D01*
D02*
G37*
G36*
X238000D02*
X234941D01*
Y468457D01*
X238000D01*
Y472500D01*
D02*
G37*
G36*
X112886Y470760D02*
X109138D01*
Y467898D01*
X112886D01*
Y470760D01*
D02*
G37*
G36*
X106837Y468004D02*
X105815D01*
Y466982D01*
X105936Y467006D01*
X106462Y467357D01*
X106813Y467883D01*
X106837Y468004D01*
D02*
G37*
G36*
X104815D02*
X103793D01*
X103817Y467883D01*
X104168Y467357D01*
X104694Y467006D01*
X104815Y466982D01*
Y468004D01*
D02*
G37*
G36*
X100282Y468870D02*
X96563D01*
Y465151D01*
X97172Y465231D01*
X98205Y465659D01*
X99093Y466340D01*
X99774Y467228D01*
X100202Y468261D01*
X100282Y468870D01*
D02*
G37*
G36*
X166839Y464121D02*
Y463098D01*
X167861D01*
X167837Y463219D01*
X167485Y463745D01*
X166959Y464097D01*
X166839Y464121D01*
D02*
G37*
G36*
X165839D02*
X165718Y464097D01*
X165192Y463745D01*
X164840Y463219D01*
X164816Y463098D01*
X165839D01*
Y464121D01*
D02*
G37*
G36*
X240628Y464852D02*
X235797D01*
Y461990D01*
X240628D01*
Y464852D01*
D02*
G37*
G36*
X234797D02*
X229966D01*
Y461990D01*
X234797D01*
Y464852D01*
D02*
G37*
G36*
X167861Y462098D02*
X166839D01*
Y461076D01*
X166959Y461100D01*
X167485Y461452D01*
X167837Y461978D01*
X167861Y462098D01*
D02*
G37*
G36*
X165839D02*
X164816D01*
X164840Y461978D01*
X165192Y461452D01*
X165718Y461100D01*
X165839Y461076D01*
Y462098D01*
D02*
G37*
G36*
X201257Y462096D02*
X198002D01*
Y458447D01*
X201257D01*
Y462096D01*
D02*
G37*
G36*
X197002D02*
X193746D01*
Y458447D01*
X197002D01*
Y462096D01*
D02*
G37*
G36*
X240628Y460990D02*
X235797D01*
Y458128D01*
X240628D01*
Y460990D01*
D02*
G37*
G36*
X234797D02*
X229966D01*
Y458128D01*
X234797D01*
Y460990D01*
D02*
G37*
G36*
X201257Y457446D02*
X198002D01*
Y453797D01*
X201257D01*
Y457446D01*
D02*
G37*
G36*
X197002D02*
X193746D01*
Y453797D01*
X197002D01*
Y457446D01*
D02*
G37*
G36*
X104850Y455543D02*
X101791D01*
Y451500D01*
X104850D01*
Y455543D01*
D02*
G37*
G36*
X100791D02*
X97732D01*
Y451500D01*
X100791D01*
Y455543D01*
D02*
G37*
G36*
X104850Y450500D02*
X101791D01*
Y446457D01*
X104850D01*
Y450500D01*
D02*
G37*
G36*
X100791D02*
X97732D01*
Y446457D01*
X100791D01*
Y450500D01*
D02*
G37*
G36*
X104850Y445543D02*
X101791D01*
Y441500D01*
X104850D01*
Y445543D01*
D02*
G37*
G36*
X100791D02*
X97732D01*
Y441500D01*
X100791D01*
Y445543D01*
D02*
G37*
G36*
X236872Y445402D02*
X235947Y445218D01*
X235163Y444695D01*
X234639Y443911D01*
X234455Y442986D01*
X234639Y442061D01*
X235163Y441277D01*
X235947Y440753D01*
X236872Y440569D01*
X237796Y440753D01*
X238580Y441277D01*
X239104Y442061D01*
X239288Y442986D01*
X239104Y443911D01*
X238580Y444695D01*
X237796Y445218D01*
X236872Y445402D01*
D02*
G37*
G36*
X104850Y440500D02*
X101791D01*
Y436457D01*
X104850D01*
Y440500D01*
D02*
G37*
G36*
X100791D02*
X97732D01*
Y436457D01*
X100791D01*
Y440500D01*
D02*
G37*
G36*
X96957Y433609D02*
Y432587D01*
X97979D01*
X97955Y432707D01*
X97603Y433233D01*
X97077Y433585D01*
X96957Y433609D01*
D02*
G37*
G36*
X95957D02*
X95836Y433585D01*
X95310Y433233D01*
X94958Y432707D01*
X94934Y432587D01*
X95957D01*
Y433609D01*
D02*
G37*
G36*
X97979Y431587D02*
X96957D01*
Y430564D01*
X97077Y430588D01*
X97603Y430940D01*
X97955Y431466D01*
X97979Y431587D01*
D02*
G37*
G36*
X95957D02*
X94934D01*
X94958Y431466D01*
X95310Y430940D01*
X95836Y430588D01*
X95957Y430564D01*
Y431587D01*
D02*
G37*
G36*
X157496Y432496D02*
X154437D01*
Y428453D01*
X157496D01*
Y432496D01*
D02*
G37*
G36*
X126000D02*
X122941D01*
Y428453D01*
X126000D01*
Y432496D01*
D02*
G37*
G36*
X121941D02*
X118882D01*
Y428453D01*
X121941D01*
Y432496D01*
D02*
G37*
G36*
X153437D02*
X150378D01*
Y428453D01*
X153437D01*
Y432496D01*
D02*
G37*
G36*
X157496Y427453D02*
X154437D01*
Y423410D01*
X157496D01*
Y427453D01*
D02*
G37*
G36*
X153437D02*
X150378D01*
Y423410D01*
X153437D01*
Y427453D01*
D02*
G37*
G36*
X126000D02*
X122941D01*
Y423410D01*
X126000D01*
Y427453D01*
D02*
G37*
G36*
X121941D02*
X118882D01*
Y423410D01*
X121941D01*
Y427453D01*
D02*
G37*
G36*
X178165Y426197D02*
X174122D01*
Y423138D01*
X178165D01*
Y426197D01*
D02*
G37*
G36*
X173122D02*
X169079D01*
Y423138D01*
X173122D01*
Y426197D01*
D02*
G37*
G36*
X167929Y424622D02*
X163886D01*
Y421563D01*
X167929D01*
Y424622D01*
D02*
G37*
G36*
X162886D02*
X158843D01*
Y421563D01*
X162886D01*
Y424622D01*
D02*
G37*
G36*
X124500Y421522D02*
Y420500D01*
X125522D01*
X125498Y420621D01*
X125147Y421147D01*
X124621Y421498D01*
X124500Y421522D01*
D02*
G37*
G36*
X123500D02*
X123379Y421498D01*
X122853Y421147D01*
X122502Y420621D01*
X122478Y420500D01*
X123500D01*
Y421522D01*
D02*
G37*
G36*
X139312Y422810D02*
X136253D01*
Y420145D01*
X139312D01*
Y422810D01*
D02*
G37*
G36*
X178165Y422138D02*
X174122D01*
Y419079D01*
X178165D01*
Y422138D01*
D02*
G37*
G36*
X173122D02*
X169079D01*
Y419079D01*
X173122D01*
Y422138D01*
D02*
G37*
G36*
X125522Y419500D02*
X124500D01*
Y418478D01*
X124621Y418502D01*
X125147Y418853D01*
X125498Y419379D01*
X125522Y419500D01*
D02*
G37*
G36*
X123500D02*
X122478D01*
X122502Y419379D01*
X122853Y418853D01*
X123379Y418502D01*
X123500Y418478D01*
Y419500D01*
D02*
G37*
G36*
X167929Y420563D02*
X163886D01*
Y417504D01*
X167929D01*
Y420563D01*
D02*
G37*
G36*
X162886D02*
X158843D01*
Y417504D01*
X162886D01*
Y420563D01*
D02*
G37*
G36*
X139312Y419145D02*
X136253D01*
Y416479D01*
X139312D01*
Y419145D01*
D02*
G37*
G36*
X166839Y413924D02*
Y412902D01*
X167861D01*
X167837Y413022D01*
X167485Y413548D01*
X166959Y413900D01*
X166839Y413924D01*
D02*
G37*
G36*
X165839D02*
X165718Y413900D01*
X165192Y413548D01*
X164840Y413022D01*
X164816Y412902D01*
X165839D01*
Y413924D01*
D02*
G37*
G36*
X148385Y415366D02*
X145326D01*
Y412700D01*
X148385D01*
Y415366D01*
D02*
G37*
G36*
X144326D02*
X141267D01*
Y412700D01*
X144326D01*
Y415366D01*
D02*
G37*
G36*
X167861Y411902D02*
X166839D01*
Y410879D01*
X166959Y410903D01*
X167485Y411255D01*
X167837Y411781D01*
X167861Y411902D01*
D02*
G37*
G36*
X165839D02*
X164816D01*
X164840Y411781D01*
X165192Y411255D01*
X165718Y410903D01*
X165839Y410879D01*
Y411902D01*
D02*
G37*
G36*
X236872Y413906D02*
X235947Y413722D01*
X235163Y413199D01*
X234639Y412415D01*
X234455Y411490D01*
X234639Y410565D01*
X235163Y409781D01*
X235947Y409257D01*
X236872Y409073D01*
X237796Y409257D01*
X238580Y409781D01*
X239104Y410565D01*
X239288Y411490D01*
X239104Y412415D01*
X238580Y413199D01*
X237796Y413722D01*
X236872Y413906D01*
D02*
G37*
G36*
X148385Y411700D02*
X145326D01*
Y409035D01*
X148385D01*
Y411700D01*
D02*
G37*
G36*
X144326D02*
X141267D01*
Y409035D01*
X144326D01*
Y411700D01*
D02*
G37*
G36*
X118500Y409522D02*
Y408500D01*
X119522D01*
X119498Y408621D01*
X119147Y409147D01*
X118621Y409498D01*
X118500Y409522D01*
D02*
G37*
G36*
X117500D02*
X117379Y409498D01*
X116853Y409147D01*
X116502Y408621D01*
X116478Y408500D01*
X117500D01*
Y409522D01*
D02*
G37*
G36*
X92500D02*
Y408500D01*
X93522D01*
X93498Y408621D01*
X93147Y409147D01*
X92621Y409498D01*
X92500Y409522D01*
D02*
G37*
G36*
X91500D02*
X91379Y409498D01*
X90853Y409147D01*
X90502Y408621D01*
X90478Y408500D01*
X91500D01*
Y409522D01*
D02*
G37*
G36*
X115268Y411543D02*
X112209D01*
Y407500D01*
X115268D01*
Y411543D01*
D02*
G37*
G36*
X111209D02*
X108150D01*
Y407500D01*
X111209D01*
Y411543D01*
D02*
G37*
G36*
X144500Y407522D02*
Y406500D01*
X145522D01*
X145498Y406621D01*
X145147Y407147D01*
X144621Y407498D01*
X144500Y407522D01*
D02*
G37*
G36*
X143500D02*
X143379Y407498D01*
X142853Y407147D01*
X142502Y406621D01*
X142478Y406500D01*
X143500D01*
Y407522D01*
D02*
G37*
G36*
X119522Y407500D02*
X118500D01*
Y406478D01*
X118621Y406502D01*
X119147Y406853D01*
X119498Y407379D01*
X119522Y407500D01*
D02*
G37*
G36*
X117500D02*
X116478D01*
X116502Y407379D01*
X116853Y406853D01*
X117379Y406502D01*
X117500Y406478D01*
Y407500D01*
D02*
G37*
G36*
X93522D02*
X92500D01*
Y406478D01*
X92621Y406502D01*
X93147Y406853D01*
X93498Y407379D01*
X93522Y407500D01*
D02*
G37*
G36*
X91500D02*
X90478D01*
X90502Y407379D01*
X90853Y406853D01*
X91379Y406502D01*
X91500Y406478D01*
Y407500D01*
D02*
G37*
G36*
X145522Y405500D02*
X144500D01*
Y404478D01*
X144621Y404502D01*
X145147Y404853D01*
X145498Y405379D01*
X145522Y405500D01*
D02*
G37*
G36*
X143500D02*
X142478D01*
X142502Y405379D01*
X142853Y404853D01*
X143379Y404502D01*
X143500Y404478D01*
Y405500D01*
D02*
G37*
G36*
X162417Y405921D02*
X158374D01*
Y402862D01*
X162417D01*
Y405921D01*
D02*
G37*
G36*
X157374D02*
X153331D01*
Y402862D01*
X157374D01*
Y405921D01*
D02*
G37*
G36*
X111209Y406500D02*
X108150D01*
Y402457D01*
X111209D01*
Y406500D01*
D02*
G37*
G36*
X240628Y403828D02*
X235797D01*
Y400966D01*
X240628D01*
Y403828D01*
D02*
G37*
G36*
X234797D02*
X229966D01*
Y400966D01*
X234797D01*
Y403828D01*
D02*
G37*
G36*
X117626Y402228D02*
Y400153D01*
X118618D01*
Y402228D01*
X117626D01*
D02*
G37*
G36*
X162417Y401862D02*
X158374D01*
Y398803D01*
X162417D01*
Y401862D01*
D02*
G37*
G36*
X157374D02*
X153331D01*
Y398803D01*
X157374D01*
Y401862D01*
D02*
G37*
G36*
X240628Y399966D02*
X235797D01*
Y397104D01*
X240628D01*
Y399966D01*
D02*
G37*
G36*
X234797D02*
X229966D01*
Y397104D01*
X234797D01*
Y399966D01*
D02*
G37*
G36*
X201651Y399966D02*
X198395D01*
Y397104D01*
X201651D01*
Y399966D01*
D02*
G37*
G36*
X197395D02*
X194139D01*
Y397104D01*
X197395D01*
Y399966D01*
D02*
G37*
G36*
X96500Y395522D02*
Y394500D01*
X97522D01*
X97498Y394621D01*
X97147Y395147D01*
X96621Y395498D01*
X96500Y395522D01*
D02*
G37*
G36*
X95500D02*
X95379Y395498D01*
X94853Y395147D01*
X94502Y394621D01*
X94478Y394500D01*
X95500D01*
Y395522D01*
D02*
G37*
G36*
X97522Y393500D02*
X96500D01*
Y392478D01*
X96621Y392502D01*
X97147Y392853D01*
X97498Y393379D01*
X97522Y393500D01*
D02*
G37*
G36*
X95500D02*
X94478D01*
X94502Y393379D01*
X94853Y392853D01*
X95379Y392502D01*
X95500Y392478D01*
Y393500D01*
D02*
G37*
G36*
X183571Y392270D02*
Y391248D01*
X184593D01*
X184569Y391369D01*
X184218Y391895D01*
X183692Y392246D01*
X183571Y392270D01*
D02*
G37*
G36*
X182571D02*
X182450Y392246D01*
X181924Y391895D01*
X181573Y391369D01*
X181549Y391248D01*
X182571D01*
Y392270D01*
D02*
G37*
G36*
X184593Y390248D02*
X183571D01*
Y389226D01*
X183692Y389250D01*
X184218Y389601D01*
X184569Y390127D01*
X184593Y390248D01*
D02*
G37*
G36*
X182571D02*
X181549D01*
X181573Y390127D01*
X181924Y389601D01*
X182450Y389250D01*
X182571Y389226D01*
Y390248D01*
D02*
G37*
G36*
X151181Y400433D02*
X150564Y400310D01*
X150040Y399960D01*
X149690Y399436D01*
X149567Y398819D01*
X149690Y398201D01*
X149896Y397894D01*
Y396564D01*
X149896Y396564D01*
X150001Y396038D01*
X150299Y395592D01*
X153732Y392158D01*
Y389732D01*
X151782Y387781D01*
X151484Y387335D01*
X151379Y386809D01*
X151379Y386809D01*
Y382898D01*
X145819D01*
Y377370D01*
X154102D01*
Y378759D01*
X177748D01*
Y377370D01*
X186031D01*
Y382898D01*
X177748D01*
Y381509D01*
X154162D01*
X154129Y381549D01*
X154129Y381549D01*
Y386240D01*
X155677Y387787D01*
X162016D01*
Y389570D01*
X165051D01*
Y387984D01*
X172744D01*
Y393905D01*
X165051D01*
Y392320D01*
X162016D01*
Y394102D01*
X155677D01*
X152646Y397133D01*
Y398162D01*
X152672Y398201D01*
X152795Y398819D01*
X152672Y399436D01*
X152322Y399960D01*
X151799Y400310D01*
X151181Y400433D01*
D02*
G37*
G36*
X91500Y381522D02*
Y380500D01*
X92522D01*
X92498Y380621D01*
X92147Y381147D01*
X91621Y381498D01*
X91500Y381522D01*
D02*
G37*
G36*
X90500D02*
X90379Y381498D01*
X89853Y381147D01*
X89502Y380621D01*
X89478Y380500D01*
X90500D01*
Y381522D01*
D02*
G37*
G36*
X92522Y379500D02*
X91500D01*
Y378478D01*
X91621Y378502D01*
X92147Y378853D01*
X92498Y379379D01*
X92522Y379500D01*
D02*
G37*
G36*
X90500D02*
X89478D01*
X89502Y379379D01*
X89853Y378853D01*
X90379Y378502D01*
X90500Y378478D01*
Y379500D01*
D02*
G37*
G36*
X109850Y377543D02*
X106791D01*
Y373500D01*
X109850D01*
Y377543D01*
D02*
G37*
G36*
X105791D02*
X102732D01*
Y373500D01*
X105791D01*
Y377543D01*
D02*
G37*
G36*
X133669Y373650D02*
X129626D01*
Y370591D01*
X133669D01*
Y373650D01*
D02*
G37*
G36*
X139500Y370522D02*
Y369500D01*
X140522D01*
X140498Y369621D01*
X140147Y370147D01*
X139621Y370498D01*
X139500Y370522D01*
D02*
G37*
G36*
X138500D02*
X138379Y370498D01*
X137853Y370147D01*
X137502Y369621D01*
X137478Y369500D01*
X138500D01*
Y370522D01*
D02*
G37*
G36*
X109850Y372500D02*
X106791D01*
Y368457D01*
X109850D01*
Y372500D01*
D02*
G37*
G36*
X140522Y368500D02*
X139500D01*
Y367478D01*
X139621Y367502D01*
X140147Y367853D01*
X140498Y368379D01*
X140522Y368500D01*
D02*
G37*
G36*
X138500D02*
X137478D01*
X137502Y368379D01*
X137853Y367853D01*
X138379Y367502D01*
X138500Y367478D01*
Y368500D01*
D02*
G37*
G36*
X133669Y369591D02*
X129626D01*
Y366531D01*
X133669D01*
Y369591D01*
D02*
G37*
G36*
X128626D02*
X124583D01*
Y366531D01*
X128626D01*
Y369591D01*
D02*
G37*
G36*
X126484Y364711D02*
Y363689D01*
X127506D01*
X127482Y363810D01*
X127131Y364336D01*
X126605Y364687D01*
X126484Y364711D01*
D02*
G37*
G36*
X125484D02*
X125364Y364687D01*
X124838Y364336D01*
X124486Y363810D01*
X124462Y363689D01*
X125484D01*
Y364711D01*
D02*
G37*
G36*
X121976Y367543D02*
X118917D01*
Y363500D01*
X121976D01*
Y367543D01*
D02*
G37*
G36*
X117917D02*
X114858D01*
Y363500D01*
X117917D01*
Y367543D01*
D02*
G37*
G36*
X186433Y365425D02*
X182390D01*
Y362760D01*
X186433D01*
Y365425D01*
D02*
G37*
G36*
X181390D02*
X177347D01*
Y362760D01*
X181390D01*
Y365425D01*
D02*
G37*
G36*
X154748Y365283D02*
X150705D01*
Y362618D01*
X154748D01*
Y365283D01*
D02*
G37*
G36*
X149705D02*
X145661D01*
Y362618D01*
X149705D01*
Y365283D01*
D02*
G37*
G36*
X127506Y362689D02*
X126484D01*
Y361667D01*
X126605Y361691D01*
X127131Y362042D01*
X127482Y362568D01*
X127506Y362689D01*
D02*
G37*
G36*
X125484D02*
X124462D01*
X124486Y362568D01*
X124838Y362042D01*
X125364Y361691D01*
X125484Y361667D01*
Y362689D01*
D02*
G37*
G36*
X186433Y361760D02*
X182390D01*
Y359095D01*
X186433D01*
Y361760D01*
D02*
G37*
G36*
X181390D02*
X177347D01*
Y359095D01*
X181390D01*
Y361760D01*
D02*
G37*
G36*
X154748Y361618D02*
X150705D01*
Y358953D01*
X154748D01*
Y361618D01*
D02*
G37*
G36*
X149705D02*
X145661D01*
Y358953D01*
X149705D01*
Y361618D01*
D02*
G37*
G36*
X121976Y362500D02*
X118917D01*
Y358457D01*
X121976D01*
Y362500D01*
D02*
G37*
G36*
X117917D02*
X114858D01*
Y358457D01*
X117917D01*
Y362500D01*
D02*
G37*
G36*
X255000Y365535D02*
X253725Y365410D01*
X252499Y365038D01*
X251369Y364434D01*
X250379Y363621D01*
X249566Y362631D01*
X248962Y361501D01*
X248590Y360275D01*
X248465Y359000D01*
X248590Y357725D01*
X248962Y356499D01*
X249566Y355369D01*
X250379Y354379D01*
X251369Y353566D01*
X252499Y352962D01*
X253725Y352590D01*
X255000Y352465D01*
X256275Y352590D01*
X257501Y352962D01*
X258631Y353566D01*
X259621Y354379D01*
X260434Y355369D01*
X261038Y356499D01*
X261410Y357725D01*
X261535Y359000D01*
X261410Y360275D01*
X261038Y361501D01*
X260434Y362631D01*
X259621Y363621D01*
X258631Y364434D01*
X257501Y365038D01*
X256275Y365410D01*
X255000Y365535D01*
D02*
G37*
G36*
X95000D02*
X93725Y365410D01*
X92499Y365038D01*
X91369Y364434D01*
X90379Y363621D01*
X89566Y362631D01*
X88962Y361501D01*
X88590Y360275D01*
X88465Y359000D01*
X88590Y357725D01*
X88962Y356499D01*
X89566Y355369D01*
X90379Y354379D01*
X91369Y353566D01*
X92499Y352962D01*
X93725Y352590D01*
X95000Y352465D01*
X96275Y352590D01*
X97501Y352962D01*
X98631Y353566D01*
X99621Y354379D01*
X100434Y355369D01*
X101038Y356499D01*
X101410Y357725D01*
X101535Y359000D01*
X101410Y360275D01*
X101038Y361501D01*
X100434Y362631D01*
X99621Y363621D01*
X98631Y364434D01*
X97501Y365038D01*
X96275Y365410D01*
X95000Y365535D01*
D02*
G37*
%LPD*%
G36*
X167953Y501418D02*
X167762Y500956D01*
X166666D01*
X160020Y507602D01*
X159497Y507952D01*
X158879Y508075D01*
X155749D01*
X155131Y507952D01*
X154608Y507602D01*
X154328Y507322D01*
X152642D01*
Y508866D01*
X146640D01*
X145507Y509999D01*
X144984Y510349D01*
X144366Y510472D01*
X142366D01*
Y512642D01*
X136051D01*
Y506073D01*
X134710Y504731D01*
X134447Y504338D01*
X134355Y503874D01*
Y501878D01*
X131720D01*
Y501557D01*
X130242D01*
X129751Y501885D01*
X129134Y502007D01*
X128516Y501885D01*
X127993Y501535D01*
X127643Y501011D01*
X127520Y500394D01*
X127643Y499776D01*
X127993Y499253D01*
X128516Y498903D01*
X129134Y498780D01*
X129751Y498903D01*
X129844Y498870D01*
X129846Y498868D01*
X129954Y498299D01*
X129458Y497803D01*
X129195Y497410D01*
X129103Y496946D01*
Y492126D01*
X129195Y491662D01*
X129458Y491269D01*
X138907Y481820D01*
X138989Y481169D01*
X138930Y481087D01*
X133732D01*
Y481488D01*
X132642D01*
Y477634D01*
X131642D01*
Y481488D01*
X131386D01*
Y483984D01*
X131293Y484448D01*
X131030Y484841D01*
X128015Y487857D01*
X127621Y488120D01*
X127157Y488212D01*
X124866D01*
Y491142D01*
X120833D01*
X111464Y500511D01*
X110940Y500861D01*
X110323Y500984D01*
X100612D01*
X100421Y501446D01*
X112361Y513386D01*
X123874D01*
X124232Y513043D01*
X124232Y512886D01*
Y509000D01*
X127791D01*
X131350D01*
Y512886D01*
X131350Y513043D01*
X131708Y513386D01*
X155985D01*
X167953Y501418D01*
D02*
G37*
G36*
X144358Y506584D02*
Y502551D01*
X152642D01*
Y504095D01*
X154996D01*
X155614Y504218D01*
X156137Y504568D01*
X156417Y504847D01*
X158211D01*
X161038Y502021D01*
X160846Y501559D01*
X159500D01*
Y498500D01*
X163543D01*
Y498862D01*
X164005Y499053D01*
X164857Y498202D01*
X165381Y497852D01*
X165998Y497729D01*
X169519D01*
X169726Y497229D01*
X162269Y489771D01*
X160575D01*
X160419Y489740D01*
X154858D01*
Y485140D01*
X153134Y483415D01*
X152494Y483483D01*
X149782Y486195D01*
X149969Y486663D01*
X149999Y486685D01*
X150091Y486667D01*
Y487689D01*
X149068D01*
X149086Y487598D01*
X149065Y487567D01*
X148597Y487380D01*
X146144Y489834D01*
X145750Y490096D01*
X145287Y490189D01*
X143022D01*
X141070Y492140D01*
X141261Y492602D01*
X142374D01*
Y494087D01*
X140685D01*
Y494587D01*
X140185D01*
Y496571D01*
X138996D01*
Y496169D01*
X136681D01*
Y496946D01*
X136589Y497410D01*
X136326Y497803D01*
X136233Y497895D01*
X136525Y498311D01*
X137626D01*
Y500295D01*
X138626D01*
Y498311D01*
X139815D01*
Y498713D01*
X141972D01*
Y501878D01*
X141897D01*
Y504358D01*
X142366D01*
Y507245D01*
X143698D01*
X144358Y506584D01*
D02*
G37*
G36*
X118551Y488860D02*
Y482858D01*
X124866D01*
Y485788D01*
X126655D01*
X128961Y483482D01*
Y477634D01*
X128984Y477517D01*
Y474756D01*
X128484Y474549D01*
X123830Y479204D01*
X123437Y479466D01*
X122973Y479559D01*
X119089D01*
X118888Y479815D01*
X115364D01*
X115163Y479559D01*
X107589D01*
X99509Y487638D01*
X99810Y488366D01*
X99943Y489370D01*
X99810Y490374D01*
X99423Y491310D01*
X98806Y492113D01*
X98003Y492730D01*
X97067Y493118D01*
X96063Y493250D01*
X95059Y493118D01*
X94123Y492730D01*
X93346Y492134D01*
X93176Y492162D01*
X92846Y492274D01*
Y493871D01*
X94499Y495524D01*
X99910D01*
Y497756D01*
X109654D01*
X118551Y488860D01*
D02*
G37*
G36*
X125279Y387827D02*
X130604D01*
X131784Y386646D01*
X132308Y386297D01*
X132925Y386174D01*
X135280D01*
Y384827D01*
X137512D01*
Y379794D01*
X135395Y377677D01*
X126758D01*
X126140Y377554D01*
X125617Y377204D01*
X123026Y374614D01*
X120866D01*
Y377142D01*
X116266D01*
X113458Y379949D01*
X113065Y380212D01*
X112601Y380305D01*
X111410D01*
X110050Y381664D01*
X110242Y382126D01*
X115634D01*
Y381724D01*
X116626D01*
Y384299D01*
X117126D01*
Y384799D01*
X118618D01*
Y385965D01*
X122055D01*
X122355Y385589D01*
X122371Y385564D01*
X124984Y382951D01*
Y378350D01*
X133268D01*
Y384665D01*
X126699D01*
X124441Y386923D01*
Y387457D01*
X124348Y387921D01*
X124085Y388314D01*
X122617Y389782D01*
X122224Y390045D01*
X122055Y390079D01*
Y393717D01*
X125279D01*
Y387827D01*
D02*
G37*
%LPC*%
G36*
X131350Y508000D02*
X128291D01*
Y503957D01*
X131350D01*
Y508000D01*
D02*
G37*
G36*
X127291D02*
X124232D01*
Y503957D01*
X127291D01*
Y508000D01*
D02*
G37*
G36*
X122547Y503491D02*
Y502468D01*
X123570D01*
X123546Y502589D01*
X123194Y503115D01*
X122668Y503467D01*
X122547Y503491D01*
D02*
G37*
G36*
X121547D02*
X121427Y503467D01*
X120900Y503115D01*
X120549Y502589D01*
X120525Y502468D01*
X121547D01*
Y503491D01*
D02*
G37*
G36*
X123570Y501469D02*
X122547D01*
Y500446D01*
X122668Y500470D01*
X123194Y500822D01*
X123546Y501348D01*
X123570Y501469D01*
D02*
G37*
G36*
X121547D02*
X120525D01*
X120549Y501348D01*
X120900Y500822D01*
X121427Y500470D01*
X121547Y500446D01*
Y501469D01*
D02*
G37*
G36*
X158500Y501559D02*
X154457D01*
Y498500D01*
X158500D01*
Y501559D01*
D02*
G37*
G36*
X142374Y496571D02*
X141185D01*
Y495087D01*
X142374D01*
Y496571D01*
D02*
G37*
G36*
X153043Y497850D02*
X149000D01*
Y494791D01*
X153043D01*
Y497850D01*
D02*
G37*
G36*
X148000D02*
X143957D01*
Y494791D01*
X148000D01*
Y497850D01*
D02*
G37*
G36*
X163543Y497500D02*
X159500D01*
Y494441D01*
X163543D01*
Y497500D01*
D02*
G37*
G36*
X158500D02*
X154457D01*
Y494441D01*
X158500D01*
Y497500D01*
D02*
G37*
G36*
X153043Y493791D02*
X149000D01*
Y490732D01*
X153043D01*
Y493791D01*
D02*
G37*
G36*
X148000D02*
X143957D01*
Y490732D01*
X148000D01*
Y493791D01*
D02*
G37*
G36*
X151091Y489711D02*
Y488689D01*
X152113D01*
X152089Y488810D01*
X151737Y489336D01*
X151211Y489687D01*
X151091Y489711D01*
D02*
G37*
G36*
X150091D02*
X149970Y489687D01*
X149444Y489336D01*
X149092Y488810D01*
X149068Y488689D01*
X150091D01*
Y489711D01*
D02*
G37*
G36*
X152113Y487689D02*
X151091D01*
Y486667D01*
X151211Y486691D01*
X151737Y487042D01*
X152089Y487568D01*
X152113Y487689D01*
D02*
G37*
G36*
X113850Y491543D02*
X110791D01*
Y487500D01*
X113850D01*
Y491543D01*
D02*
G37*
G36*
X109791D02*
X106732D01*
Y487500D01*
X109791D01*
Y491543D01*
D02*
G37*
G36*
X113850Y486500D02*
X110791D01*
Y482457D01*
X113850D01*
Y486500D01*
D02*
G37*
G36*
X109791D02*
X106732D01*
Y482457D01*
X109791D01*
Y486500D01*
D02*
G37*
G36*
X117626Y481837D02*
Y480815D01*
X118648D01*
X118624Y480936D01*
X118273Y481462D01*
X117747Y481813D01*
X117626Y481837D01*
D02*
G37*
G36*
X116626D02*
X116505Y481813D01*
X115979Y481462D01*
X115628Y480936D01*
X115604Y480815D01*
X116626D01*
Y481837D01*
D02*
G37*
G36*
X118618Y383799D02*
X117626D01*
Y381724D01*
X117818D01*
X117970Y381224D01*
X117853Y381147D01*
X117502Y380621D01*
X117478Y380500D01*
X120522D01*
X120498Y380621D01*
X120147Y381147D01*
X119621Y381498D01*
X119070Y381608D01*
X118995Y381627D01*
X118618Y382055D01*
Y383799D01*
D02*
G37*
G36*
X120522Y379500D02*
X119500D01*
Y378478D01*
X119621Y378502D01*
X120147Y378853D01*
X120498Y379379D01*
X120522Y379500D01*
D02*
G37*
G36*
X118500D02*
X117478D01*
X117502Y379379D01*
X117853Y378853D01*
X118379Y378502D01*
X118500Y378478D01*
Y379500D01*
D02*
G37*
%LPD*%
D18*
X107000Y363000D02*
D03*
X118417D02*
D03*
X117709Y373000D02*
D03*
X106291D02*
D03*
X101291Y451000D02*
D03*
X112709D02*
D03*
X121709Y487000D02*
D03*
X110291D02*
D03*
X216732Y473622D02*
D03*
X205315D02*
D03*
X238500Y473000D02*
D03*
X227083D02*
D03*
X142520Y427953D02*
D03*
X153937D02*
D03*
X112709Y441000D02*
D03*
X101291D02*
D03*
X133858Y427953D02*
D03*
X122441D02*
D03*
X100291Y407000D02*
D03*
X111709D02*
D03*
X127791Y508500D02*
D03*
X139209D02*
D03*
D19*
X113386Y471260D02*
D03*
Y460236D02*
D03*
X129126Y401811D02*
D03*
Y390787D02*
D03*
X139126Y398811D02*
D03*
Y387787D02*
D03*
X168898Y390945D02*
D03*
Y401968D02*
D03*
D20*
X130173Y444366D02*
D03*
X132142D02*
D03*
X134110D02*
D03*
X136079D02*
D03*
X138047D02*
D03*
X140016D02*
D03*
X141984D02*
D03*
X143953D02*
D03*
X145921D02*
D03*
X147890D02*
D03*
X149858D02*
D03*
X151827D02*
D03*
Y477634D02*
D03*
X149858D02*
D03*
X147890D02*
D03*
X145921D02*
D03*
X143953D02*
D03*
X141984D02*
D03*
X140016D02*
D03*
X138047D02*
D03*
X136079D02*
D03*
X134110D02*
D03*
X132142D02*
D03*
X130173D02*
D03*
D21*
X157634Y450173D02*
D03*
Y452142D02*
D03*
Y454110D02*
D03*
Y456079D02*
D03*
Y458047D02*
D03*
Y460016D02*
D03*
Y461984D02*
D03*
Y463953D02*
D03*
Y465921D02*
D03*
Y467890D02*
D03*
Y469858D02*
D03*
Y471827D02*
D03*
X124366D02*
D03*
Y469858D02*
D03*
Y467890D02*
D03*
Y465921D02*
D03*
Y463953D02*
D03*
Y461984D02*
D03*
Y460016D02*
D03*
Y458047D02*
D03*
Y456079D02*
D03*
Y454110D02*
D03*
Y452142D02*
D03*
Y450173D02*
D03*
D22*
X194921Y474409D02*
D03*
X184606D02*
D03*
D23*
X197502Y457946D02*
D03*
D24*
X235297Y461490D02*
D03*
X235297Y400466D02*
D03*
D25*
X197895D02*
D03*
D26*
X195533Y405191D02*
D03*
Y409521D02*
D03*
Y413852D02*
D03*
Y418183D02*
D03*
Y422513D02*
D03*
Y426844D02*
D03*
Y431175D02*
D03*
Y435505D02*
D03*
Y439836D02*
D03*
D27*
X211024Y486161D02*
D03*
X228976D02*
D03*
X183024D02*
D03*
X200976D02*
D03*
D28*
X220000Y511752D02*
D03*
X192000D02*
D03*
D29*
X173000Y499342D02*
D03*
Y509657D02*
D03*
D30*
X173622Y434055D02*
D03*
Y422638D02*
D03*
X163386Y421063D02*
D03*
Y432480D02*
D03*
X157874Y402362D02*
D03*
Y390945D02*
D03*
X159000Y498000D02*
D03*
Y486583D02*
D03*
X148500Y494291D02*
D03*
Y505709D02*
D03*
X129126Y370091D02*
D03*
Y381508D02*
D03*
D31*
X135753Y419645D02*
D03*
X144808D02*
D03*
X135814Y412136D02*
D03*
X144826Y412200D02*
D03*
D32*
X103543Y428346D02*
D03*
Y420079D02*
D03*
D33*
X117126Y399654D02*
D03*
X115157D02*
D03*
X113189D02*
D03*
X111221D02*
D03*
X109252D02*
D03*
X107283D02*
D03*
Y384299D02*
D03*
X109252D02*
D03*
X111221D02*
D03*
X113189D02*
D03*
X115157D02*
D03*
X117126D02*
D03*
D34*
X104528Y396898D02*
D03*
Y394929D02*
D03*
Y392961D02*
D03*
Y390992D02*
D03*
Y389024D02*
D03*
Y387055D02*
D03*
X119882D02*
D03*
Y389024D02*
D03*
Y390992D02*
D03*
Y392961D02*
D03*
Y394929D02*
D03*
Y396898D02*
D03*
D35*
X112205Y391976D02*
D03*
D36*
X112992Y421752D02*
D03*
Y428642D02*
D03*
D37*
X140685Y500295D02*
D03*
X138126D02*
D03*
X135567D02*
D03*
X133008D02*
D03*
D03*
Y494587D02*
D03*
X135567D02*
D03*
X138126D02*
D03*
X140685D02*
D03*
D38*
X150205Y362118D02*
D03*
X181890Y362260D02*
D03*
Y380134D02*
D03*
X149961D02*
D03*
D57*
X96063Y479370D02*
D03*
Y489370D02*
D03*
Y469370D02*
D03*
D58*
Y499370D02*
D03*
D62*
X234729Y501000D02*
X250500D01*
X228855Y495127D02*
X234729Y501000D01*
X192000Y509193D02*
Y511752D01*
X184323Y501516D02*
X192000Y509193D01*
X174051Y501516D02*
X184323D01*
X173000Y500465D02*
X174051Y501516D01*
X194921Y474409D02*
X196043D01*
X200878Y479244D01*
Y486063D01*
X200976Y486161D01*
X196496Y472708D02*
X201693Y467512D01*
X222579D01*
X196043Y474409D02*
X196496Y473957D01*
X222579Y467512D02*
X227083Y472016D01*
Y473000D01*
X196496Y472708D02*
Y473957D01*
X228976Y475878D02*
Y486161D01*
X227083Y473984D02*
X228976Y475878D01*
X227083Y473000D02*
Y473984D01*
X216732Y474606D02*
Y484536D01*
Y473622D02*
Y474606D01*
X211122Y480217D02*
X216732Y474606D01*
X211122Y480217D02*
Y486063D01*
X211024Y486161D02*
X211122Y486063D01*
X227323Y495127D02*
X228855D01*
X216732Y484536D02*
X227323Y495127D01*
D63*
X96063Y499370D02*
X111693Y515000D01*
X156654D02*
X169752Y501902D01*
X111693Y515000D02*
X156654D01*
X138000Y378000D02*
X139126Y379126D01*
X136063Y376063D02*
X138000Y378000D01*
X117709Y373000D02*
X123695D01*
X126758Y376063D01*
X136063D01*
X139126Y379126D02*
Y387787D01*
X92000Y401000D02*
Y402000D01*
X98716Y404441D02*
X100291Y406016D01*
X94441Y404441D02*
X98716D01*
X92000Y402000D02*
X94441Y404441D01*
X100284Y407008D02*
X100291Y407000D01*
X100284Y407008D02*
Y413496D01*
X98032Y415748D02*
X100284Y413496D01*
X139209Y508500D02*
X139567Y508858D01*
X147516Y505709D02*
X148500D01*
X144366Y508858D02*
X147516Y505709D01*
X139567Y508858D02*
X144366D01*
X148500Y505709D02*
X154996D01*
X165998Y499342D02*
X173000D01*
X172835Y433268D02*
X173622Y434055D01*
X164173Y433268D02*
X172835D01*
X163386Y432480D02*
X164173Y433268D01*
X132925Y387787D02*
X139126D01*
X131390Y389323D02*
X132925Y387787D01*
X131390Y389323D02*
Y389409D01*
X130012Y390787D02*
X131390Y389409D01*
X129126Y390787D02*
X130012D01*
X168898Y401968D02*
X169783D01*
X171161Y403346D01*
Y404232D01*
X181817Y414888D01*
Y426844D01*
X195533D01*
X174606Y434055D02*
X181817Y426844D01*
X173622Y434055D02*
X174606D01*
X195533Y426844D02*
X195854Y427165D01*
X200787D01*
X201969Y428346D02*
Y431890D01*
X200787Y427165D02*
X201969Y428346D01*
X173000Y498220D02*
Y499342D01*
Y490717D02*
Y498220D01*
X172835Y490551D02*
X173000Y490717D01*
X98032Y422835D02*
X103543Y428346D01*
X98032Y415748D02*
Y422835D01*
X112709Y440016D02*
Y441000D01*
X104921Y432228D02*
X112709Y440016D01*
X104921Y429724D02*
Y432228D01*
X103543Y428346D02*
X104921Y429724D01*
X94488Y459842D02*
X103866D01*
X91232Y463098D02*
Y494539D01*
Y463098D02*
X94488Y459842D01*
X91232Y494539D02*
X96063Y499370D01*
X103866Y459842D02*
X110150Y453559D01*
X112709Y441000D02*
Y451000D01*
Y451984D01*
X111134Y453559D02*
X112709Y451984D01*
X110150Y453559D02*
X111134D01*
X158879Y506461D02*
X165998Y499342D01*
X154996Y505709D02*
X155749Y506461D01*
X158879D01*
X162937Y488158D02*
X173000Y498220D01*
X160575Y488158D02*
X162937D01*
X159000Y486583D02*
X160575Y488158D01*
X96063Y499370D02*
X110323D01*
X121709Y487984D01*
Y487000D02*
Y487984D01*
X173000Y499342D02*
Y500465D01*
X171563Y501902D02*
X173000Y500465D01*
X169752Y501902D02*
X171563D01*
D64*
X95000Y371000D02*
X103000Y363000D01*
X107000D01*
X95000Y371000D02*
Y388308D01*
X97684Y390992D01*
X104528D01*
X110908Y379092D02*
X112601D01*
X108465Y381535D02*
X110908Y379092D01*
X108267Y381535D02*
X108465D01*
X107382Y382421D02*
Y384201D01*
Y382421D02*
X108267Y381535D01*
X117709Y373000D02*
Y373984D01*
X112601Y379092D02*
X117709Y373984D01*
X107283Y384299D02*
X107382Y384201D01*
X100291Y406016D02*
Y407000D01*
Y397385D02*
Y406016D01*
Y397385D02*
X102649Y395028D01*
X104429D01*
X104528Y394929D01*
X139209Y507516D02*
Y508500D01*
X135567Y503874D02*
X139209Y507516D01*
X135567Y500295D02*
Y503874D01*
X119882Y394929D02*
X134358D01*
X138390Y398961D01*
X138976D01*
X145921Y441208D02*
X152484Y434646D01*
X160433Y434449D02*
X162402Y432480D01*
X159938Y434449D02*
X160433D01*
X159741Y434646D02*
X159938Y434449D01*
X152484Y434646D02*
X159741D01*
X145921Y441208D02*
Y444366D01*
X162402Y432480D02*
X163386D01*
X167937Y456079D02*
X179921Y444095D01*
X181496Y446063D02*
X198032D01*
X157634Y456079D02*
X167937D01*
X169512Y458047D02*
X181496Y446063D01*
X167133Y454110D02*
X185738Y435505D01*
X157634Y458047D02*
X169512D01*
X157634Y454110D02*
X167133D01*
X197484Y444095D02*
X205512Y436066D01*
X199762Y422597D02*
X205512Y428346D01*
X195617Y422597D02*
X199762D01*
X205512Y428346D02*
Y436066D01*
X195533Y422513D02*
X195617Y422597D01*
X207480Y423445D02*
Y436615D01*
X198032Y446063D02*
X207480Y436615D01*
X199652Y415616D02*
X207480Y423445D01*
X199068Y415616D02*
X199652D01*
X197305Y413852D02*
X199068Y415616D01*
X179921Y444095D02*
X197484D01*
X129183Y500345D02*
X132959D01*
X129134Y500394D02*
X129183Y500345D01*
X132959D02*
X133008Y500295D01*
X184682Y431139D02*
X195497D01*
X133418Y471654D02*
X134110Y472345D01*
X122973Y478346D02*
X129666Y471654D01*
X134110Y472345D02*
Y477634D01*
X129666Y471654D02*
X133418D01*
X96063Y489370D02*
X107087Y478346D01*
X122973D01*
X96889Y479370D02*
X100026Y476234D01*
X115704D01*
X117823Y473744D02*
Y474115D01*
Y473744D02*
X119740Y471827D01*
X115704Y476234D02*
X117823Y474115D01*
X96063Y479370D02*
X96889D01*
X127157Y487000D02*
X130173Y483984D01*
Y477634D02*
Y483984D01*
X121709Y487000D02*
X127157D01*
X119740Y471827D02*
X124366D01*
X128347Y398031D02*
Y401031D01*
X127213Y396898D02*
X128347Y398031D01*
X119882Y396898D02*
X127213D01*
X128347Y401031D02*
X129134Y401819D01*
X195533Y413852D02*
X197305D01*
X185738Y435505D02*
X195533D01*
X195497Y431139D02*
X195533Y431175D01*
X143953Y464315D02*
Y477634D01*
Y464315D02*
X147244Y461024D01*
X150607Y467323D02*
X151174Y467890D01*
X157634D01*
X150394Y467323D02*
X150607D01*
X103543Y420079D02*
X111319D01*
X112992Y421752D01*
Y428642D02*
X113386D01*
X115059Y430315D01*
Y432776D01*
X121260Y438976D01*
X131450D02*
X132142Y439668D01*
Y444366D01*
X121260Y438976D02*
X131450D01*
X147890Y477634D02*
Y481340D01*
X143964Y485266D02*
X147890Y481340D01*
X140249Y485266D02*
X143964D01*
X135592Y489923D02*
X140249Y485266D01*
X135468Y494685D02*
Y496946D01*
X134777Y497638D02*
X135468Y496946D01*
Y494685D02*
X135567Y494587D01*
X131007Y497638D02*
X134777D01*
X130315Y492126D02*
Y496946D01*
X131007Y497638D01*
X145921Y477634D02*
Y480792D01*
X144036Y482677D02*
X145921Y480792D01*
X139764Y482677D02*
X144036D01*
X130315Y492126D02*
X139764Y482677D01*
X149858Y477634D02*
Y481888D01*
X144701Y487045D02*
X149858Y481888D01*
X151827Y477634D02*
Y482436D01*
X141695Y487045D02*
X144701D01*
X145287Y488976D02*
X151827Y482436D01*
X142520Y488976D02*
X145287D01*
X136327Y492413D02*
X141695Y487045D01*
X138126Y494587D02*
X138224Y494488D01*
Y493272D02*
X142520Y488976D01*
X138224Y493272D02*
Y494488D01*
X133763Y492413D02*
X136327D01*
X133008Y494587D02*
X133071Y494524D01*
Y493105D02*
Y494524D01*
Y493105D02*
X133763Y492413D01*
X113386Y460236D02*
X118405D01*
X120595Y458047D01*
X124366D01*
X112709Y451000D02*
X117976D01*
X118803Y450173D01*
X124366D01*
X119882Y389024D02*
X119980Y388925D01*
X121760D01*
X123228Y387457D01*
X128142Y381508D02*
X129126D01*
X123228Y386421D02*
X128142Y381508D01*
X123228Y386421D02*
Y387457D01*
X152535Y465921D02*
X157634D01*
X150394Y463779D02*
X152535Y465921D01*
X138976Y398961D02*
Y403937D01*
X129134Y401819D02*
Y407480D01*
X112709Y441000D02*
X129071D01*
X130173Y442102D01*
Y444366D01*
X140016Y434787D02*
Y444366D01*
Y434787D02*
X142227Y432576D01*
Y428245D02*
X142520Y427953D01*
X142227Y428245D02*
Y432576D01*
X142520Y426968D02*
Y427953D01*
X144808Y419645D02*
Y424680D01*
X142520Y426968D02*
X144808Y424680D01*
X153606Y473591D02*
Y482173D01*
X155370Y471827D02*
X157634D01*
X153606Y473591D02*
X155370Y471827D01*
X158016Y486583D02*
X159000D01*
X153606Y482173D02*
X158016Y486583D01*
X140685Y500295D02*
Y507024D01*
X139209Y508500D02*
X140685Y507024D01*
D65*
X141984Y437276D02*
Y444366D01*
Y437276D02*
X143701Y435560D01*
Y435433D02*
Y435560D01*
X156890Y390945D02*
X157874D01*
X151271Y396564D02*
X156890Y390945D01*
X151271Y396564D02*
Y398729D01*
X151181Y398819D02*
X151271Y398729D01*
X151339Y380134D02*
X181890D01*
X149961D02*
X151339D01*
X152754Y381549D01*
Y386809D01*
X156890Y390945D01*
X157874D02*
X168898D01*
X131102Y416454D02*
X135420Y412136D01*
X131102Y424213D02*
X133858Y426968D01*
X131102Y416454D02*
Y424213D01*
X135667Y430746D02*
X135667D01*
X138047Y433126D02*
Y444366D01*
X135667Y430746D02*
X138047Y433126D01*
X133858Y428937D02*
X135667Y430746D01*
X133858Y426968D02*
Y428937D01*
X135420Y412136D02*
X135814D01*
D66*
X250500Y501000D02*
D03*
Y491000D02*
D03*
D67*
X144000Y406000D02*
D03*
X124000Y420000D02*
D03*
X119000Y380000D02*
D03*
X101000Y368000D02*
D03*
X91000Y380000D02*
D03*
X96000Y394000D02*
D03*
X92000Y408000D02*
D03*
X118000D02*
D03*
X125984Y363189D02*
D03*
X166339Y412402D02*
D03*
Y462598D02*
D03*
X139000Y369000D02*
D03*
X183071Y390748D02*
D03*
X96457Y432087D02*
D03*
X150591Y488189D02*
D03*
X117126Y480315D02*
D03*
X105315Y468504D02*
D03*
X122047Y501968D02*
D03*
D68*
X138000Y378000D02*
D03*
X92000Y401000D02*
D03*
X201969Y431890D02*
D03*
X172835Y490551D02*
D03*
X129134Y500394D02*
D03*
X184682Y431139D02*
D03*
X143701Y435433D02*
D03*
X151181Y398819D02*
D03*
X147244Y461024D02*
D03*
X150394Y467323D02*
D03*
X135592Y489923D02*
D03*
X150394Y463779D02*
D03*
X138976Y403937D02*
D03*
X129134Y407480D02*
D03*
M02*
