G04*
G04 #@! TF.GenerationSoftware,Altium Limited,Altium Designer,20.0.13 (296)*
G04*
G04 Layer_Color=8421504*
%FSLAX25Y25*%
%MOIN*%
G70*
G01*
G75*
%ADD18R,0.05118X0.07087*%
%ADD19R,0.06496X0.04724*%
%ADD20R,0.01181X0.05709*%
%ADD21R,0.05709X0.01181*%
%ADD22R,0.07087X0.04842*%
%ADD23R,0.05512X0.06299*%
%ADD24R,0.08661X0.04724*%
%ADD25R,0.05512X0.04724*%
%ADD26R,0.06299X0.02756*%
%ADD27R,0.03740X0.10236*%
%ADD28R,0.19291X0.24410*%
%ADD29R,0.04842X0.07087*%
%ADD30R,0.07087X0.05118*%
%ADD31R,0.05118X0.04331*%
%ADD32R,0.04724X0.04724*%
%ADD33R,0.00984X0.03150*%
%ADD34R,0.03150X0.00984*%
%ADD35R,0.10236X0.10630*%
%ADD36R,0.05315X0.04528*%
%ADD37R,0.01378X0.01968*%
%ADD38R,0.07087X0.04331*%
D18*
X107000Y363000D02*
D03*
X118417D02*
D03*
X117709Y373000D02*
D03*
X106291D02*
D03*
X101291Y451000D02*
D03*
X112709D02*
D03*
X121709Y487000D02*
D03*
X110291D02*
D03*
X216732Y473622D02*
D03*
X205315D02*
D03*
X238500Y473000D02*
D03*
X227083D02*
D03*
X142520Y427953D02*
D03*
X153937D02*
D03*
X112709Y441000D02*
D03*
X101291D02*
D03*
X133858Y427953D02*
D03*
X122441D02*
D03*
X100291Y407000D02*
D03*
X111709D02*
D03*
X127791Y508500D02*
D03*
X139209D02*
D03*
D19*
X113386Y471260D02*
D03*
Y460236D02*
D03*
X129126Y401811D02*
D03*
Y390787D02*
D03*
X139126Y398811D02*
D03*
Y387787D02*
D03*
X168898Y390945D02*
D03*
Y401968D02*
D03*
D20*
X130173Y444366D02*
D03*
X132142D02*
D03*
X134110D02*
D03*
X136079D02*
D03*
X138047D02*
D03*
X140016D02*
D03*
X141984D02*
D03*
X143953D02*
D03*
X145921D02*
D03*
X147890D02*
D03*
X149858D02*
D03*
X151827D02*
D03*
Y477634D02*
D03*
X149858D02*
D03*
X147890D02*
D03*
X145921D02*
D03*
X143953D02*
D03*
X141984D02*
D03*
X140016D02*
D03*
X138047D02*
D03*
X136079D02*
D03*
X134110D02*
D03*
X132142D02*
D03*
X130173D02*
D03*
D21*
X157634Y450173D02*
D03*
Y452142D02*
D03*
Y454110D02*
D03*
Y456079D02*
D03*
Y458047D02*
D03*
Y460016D02*
D03*
Y461984D02*
D03*
Y463953D02*
D03*
Y465921D02*
D03*
Y467890D02*
D03*
Y469858D02*
D03*
Y471827D02*
D03*
X124366D02*
D03*
Y469858D02*
D03*
Y467890D02*
D03*
Y465921D02*
D03*
Y463953D02*
D03*
Y461984D02*
D03*
Y460016D02*
D03*
Y458047D02*
D03*
Y456079D02*
D03*
Y454110D02*
D03*
Y452142D02*
D03*
Y450173D02*
D03*
D22*
X194921Y474409D02*
D03*
X184606D02*
D03*
D23*
X197502Y457946D02*
D03*
D24*
X235297Y461490D02*
D03*
X235297Y400466D02*
D03*
D25*
X197895D02*
D03*
D26*
X195533Y405191D02*
D03*
Y409521D02*
D03*
Y413852D02*
D03*
Y418183D02*
D03*
Y422513D02*
D03*
Y426844D02*
D03*
Y431175D02*
D03*
Y435505D02*
D03*
Y439836D02*
D03*
D27*
X211024Y486161D02*
D03*
X228976D02*
D03*
X183024D02*
D03*
X200976D02*
D03*
D28*
X220000Y511752D02*
D03*
X192000D02*
D03*
D29*
X173000Y499342D02*
D03*
Y509657D02*
D03*
D30*
X173622Y434055D02*
D03*
Y422638D02*
D03*
X163386Y421063D02*
D03*
Y432480D02*
D03*
X157874Y402362D02*
D03*
Y390945D02*
D03*
X159000Y498000D02*
D03*
Y486583D02*
D03*
X148500Y494291D02*
D03*
Y505709D02*
D03*
X129126Y370091D02*
D03*
Y381508D02*
D03*
D31*
X135753Y419645D02*
D03*
X144808D02*
D03*
X135814Y412136D02*
D03*
X144826Y412200D02*
D03*
D32*
X103543Y428346D02*
D03*
Y420079D02*
D03*
D33*
X117126Y399654D02*
D03*
X115157D02*
D03*
X113189D02*
D03*
X111221D02*
D03*
X109252D02*
D03*
X107283D02*
D03*
Y384299D02*
D03*
X109252D02*
D03*
X111221D02*
D03*
X113189D02*
D03*
X115157D02*
D03*
X117126D02*
D03*
D34*
X104528Y396898D02*
D03*
Y394929D02*
D03*
Y392961D02*
D03*
Y390992D02*
D03*
Y389024D02*
D03*
Y387055D02*
D03*
X119882D02*
D03*
Y389024D02*
D03*
Y390992D02*
D03*
Y392961D02*
D03*
Y394929D02*
D03*
Y396898D02*
D03*
D35*
X112205Y391976D02*
D03*
D36*
X112992Y421752D02*
D03*
Y428642D02*
D03*
D37*
X140685Y500295D02*
D03*
X138126D02*
D03*
X135567D02*
D03*
X133008D02*
D03*
D03*
Y494587D02*
D03*
X135567D02*
D03*
X138126D02*
D03*
X140685D02*
D03*
D38*
X150205Y362118D02*
D03*
X181890Y362260D02*
D03*
Y380134D02*
D03*
X149961D02*
D03*
M02*
