G04*
G04 #@! TF.GenerationSoftware,Altium Limited,Altium Designer,20.0.13 (296)*
G04*
G04 Layer_Color=32768*
%FSLAX25Y25*%
%MOIN*%
G70*
G01*
G75*
%ADD29C,0.00394*%
%ADD31C,0.00197*%
D29*
X312992Y479331D02*
Y484252D01*
X317913D01*
X312992D02*
Y489173D01*
X308071Y484252D02*
X312992D01*
X210630Y454724D02*
X215551D01*
X210630D02*
Y459646D01*
X205709Y454724D02*
X210630D01*
Y449803D02*
Y454724D01*
X301830Y440916D02*
X305767D01*
X303799Y438948D02*
Y442885D01*
X248759Y423661D02*
X252696D01*
X250727Y421692D02*
Y425629D01*
X281496Y474409D02*
Y478346D01*
X279528Y476378D02*
X283465D01*
X281496Y492126D02*
Y496063D01*
X279528Y494095D02*
X283465D01*
X273622Y467520D02*
Y502953D01*
X226378D02*
X273622D01*
X226378Y428150D02*
Y502953D01*
Y428150D02*
X273622D01*
Y467520D01*
X250000Y465551D02*
Y474409D01*
X245079Y470472D02*
X253937D01*
D31*
X329527Y467717D02*
Y500787D01*
X296457Y467717D02*
X329527D01*
X296457D02*
Y500787D01*
X329527D01*
X194095Y471260D02*
X227165D01*
Y438189D02*
Y471260D01*
X194095Y438189D02*
X227165D01*
X194095D02*
Y471260D01*
X275354Y414735D02*
Y467097D01*
X332244Y414735D02*
Y467097D01*
X275354D02*
X332244D01*
X275354Y414735D02*
X332244D01*
X264727Y416771D02*
Y430550D01*
X236727Y416771D02*
Y430550D01*
Y416771D02*
X264727D01*
X236727Y430550D02*
X264727D01*
X277756Y483071D02*
X285236D01*
X277756Y469685D02*
X285236D01*
Y483071D01*
X277756Y469685D02*
Y483071D01*
Y500787D02*
X285236D01*
X277756Y487402D02*
X285236D01*
Y500787D01*
X277756Y487402D02*
Y500787D01*
M02*
