G04*
G04 #@! TF.GenerationSoftware,Altium Limited,Altium Designer,20.0.13 (296)*
G04*
G04 Layer_Color=32768*
%FSLAX25Y25*%
%MOIN*%
G70*
G01*
G75*
%ADD32C,0.00394*%
%ADD34C,0.00197*%
D32*
X478561Y274205D02*
X482498D01*
X480529Y272236D02*
Y276173D01*
X478561Y314205D02*
X482498D01*
X480529Y312236D02*
Y316174D01*
X389361Y316791D02*
Y320728D01*
X387393Y318760D02*
X391330D01*
X409646Y325877D02*
Y344578D01*
Y269775D02*
Y288476D01*
X428347Y312098D02*
X437205D01*
X433268Y307177D02*
Y316035D01*
X456890Y269775D02*
Y309145D01*
X409646Y269775D02*
X456890D01*
X409646Y288476D02*
Y325877D01*
Y344578D02*
X456890D01*
Y309145D02*
Y344578D01*
X433091Y219123D02*
X448839D01*
X440965Y213217D02*
Y225028D01*
X388209Y193532D02*
X496083D01*
X388209D02*
Y244713D01*
X496083D01*
Y193532D02*
Y244713D01*
X430513Y257497D02*
X434450D01*
X432481Y255529D02*
Y259466D01*
X390528Y281278D02*
Y285215D01*
X388559Y283247D02*
X392496D01*
X390529Y262237D02*
Y266174D01*
X388561Y264205D02*
X392498D01*
X390529Y252237D02*
Y256174D01*
X388561Y254205D02*
X392498D01*
X390528Y291278D02*
Y295215D01*
X388559Y293247D02*
X392496D01*
X390529Y272236D02*
Y276173D01*
X388561Y274205D02*
X392498D01*
D34*
X505726Y256882D02*
Y291528D01*
X455333Y256882D02*
Y291528D01*
Y256882D02*
X505726D01*
X455333Y291528D02*
X505726D01*
Y296882D02*
Y331528D01*
X455333Y296882D02*
Y331528D01*
Y296882D02*
X505726D01*
X455333Y331528D02*
X505726D01*
X375188Y301830D02*
X403535D01*
X375188Y335689D02*
X403535D01*
X375188Y301830D02*
Y335689D01*
X403535Y301830D02*
Y335689D01*
X414765Y244111D02*
Y270883D01*
X450198Y244111D02*
Y270883D01*
X414765D02*
X450198D01*
X414765Y244111D02*
X450198D01*
X383835Y286987D02*
X397220D01*
X383835Y279507D02*
X397220D01*
X383835D02*
Y286987D01*
X397220Y279507D02*
Y286987D01*
X383836Y260465D02*
X397222D01*
X383836Y267945D02*
X397222D01*
Y260465D02*
Y267945D01*
X383836Y260465D02*
Y267945D01*
X383836Y257945D02*
X397222D01*
X383836Y250465D02*
X397222D01*
X383836D02*
Y257945D01*
X397222Y250465D02*
Y257945D01*
X383835Y296987D02*
X397220D01*
X383835Y289507D02*
X397220D01*
X383835D02*
Y296987D01*
X397220Y289507D02*
Y296987D01*
X383836Y270465D02*
X397222D01*
X383836Y277945D02*
X397222D01*
Y270465D02*
Y277945D01*
X383836Y270465D02*
Y277945D01*
M02*
