M48
;Layer_Color=9474304
;FILE_FORMAT=2:5
INCH,TZ
;TYPE=PLATED
T1F00S00C0.01181
T2F00S00C0.03937
T3F00S00C0.11811
%
T01
X101000Y368000
X91000Y380000
X96000Y394000
X92000Y401000
Y408000
X118000
X129134Y407480
X138976Y403937
X144000Y406000
X151181Y398819
X138000Y378000
X139000Y369000
X125984Y363189
X119000Y380000
X124000Y420000
X143701Y435433
X147244Y461024
X150394Y463779
Y467323
X105315Y468504
X96457Y432087
X184682Y431139
X201969Y431890
X166339Y412402
X183071Y390748
X166339Y462598
X172835Y490551
X150591Y488189
X135592Y489923
X129134Y500394
X122047Y501968
X117126Y480315
T02
X250500Y491000
Y501000
X96063Y499370
Y489370
Y479370
Y469370
T03
X95000Y359000
X255000
Y519000
X95000
M30
